<svg width="23" height="23" viewBox="0 0 23 23" fill="none" xmlns="http://www.w3.org/2000/svg">
<path d="M20.1661 5.31241H12.8865C12.591 5.31241 12.3024 5.19107 12.1031 4.98484L9.83172 2.59212C9.28574 2.04789 8.53873 1.76363 7.78216 1.76799H2.83385C1.27133 1.76794 0 3.03927 0 4.60174V18.3983C0 19.9608 1.27133 21.2321 2.83385 21.2321H20.1765H20.1791C21.7408 21.2252 23.0069 19.9478 23 18.3896V8.14621C23 6.58369 21.7286 5.31241 20.1661 5.31241ZM21.2667 18.3931C21.2693 18.9997 20.778 19.4963 20.1748 19.4989H2.83385C2.22722 19.4989 1.73326 19.0049 1.73326 18.3983V4.60174C1.73326 3.99512 2.22722 3.50116 2.83385 3.50026H7.80471C7.81424 3.50026 7.82376 3.50026 7.83333 3.50026C8.12276 3.50026 8.40356 3.61553 8.59246 3.80272L10.8517 6.18416C11.3821 6.73184 12.1239 7.04558 12.8865 7.04558H20.1661C20.7727 7.04558 21.2667 7.53954 21.2667 8.14616V18.3931H21.2667Z" fill="#383838"/>
</svg>
