<svg width="28" height="19" viewBox="0 0 28 19" fill="none" xmlns="http://www.w3.org/2000/svg">
<path fill-rule="evenodd" clip-rule="evenodd" d="M2 0C0.895431 0 0 0.895434 0 2V16.2762C0 17.3807 0.895431 18.2762 2 18.2762H26C27.1046 18.2762 28 17.3807 28 16.2761V2C28 0.895431 27.1046 0 26 0H2ZM9.1 11.9C8.7134 11.9 8.4 12.2134 8.4 12.6C8.4 12.9866 8.7134 13.3 9.1 13.3H18.9C19.2866 13.3 19.6 12.9866 19.6 12.6C19.6 12.2134 19.2866 11.9 18.9 11.9H9.1ZM6.98579 8.4L4.19289 5.60711L5.60711 4.19289L9.10711 7.69289L9.81421 8.4L9.10711 9.10711L5.60711 12.6071L4.19289 11.1929L6.98579 8.4ZM26.1255 1.87446H1.8745V16.4017H26.1255V1.87446Z" fill="#383838"/>
</svg>
