<svg width="23" height="23" viewBox="0 0 23 23" fill="none" xmlns="http://www.w3.org/2000/svg">
<path d="M22.3822 10.0039C22.3816 10.0034 22.3811 10.0028 22.3806 10.0023L12.9975 0.620483C12.5975 0.220398 12.0658 0 11.5001 0C10.9345 0 10.4028 0.220222 10.0027 0.620308L0.624431 9.9974C0.621272 10.0006 0.618113 10.0039 0.614954 10.007C-0.206357 10.833 -0.204953 12.1731 0.618991 12.997C0.995425 13.3736 1.4926 13.5917 2.02417 13.6145C2.04576 13.6166 2.06752 13.6176 2.08945 13.6176H2.46343V20.5221C2.46343 21.8884 3.57519 23 4.94193 23H8.61292C8.98496 23 9.28681 22.6984 9.28681 22.3262V16.9131C9.28681 16.2896 9.79399 15.7825 10.4175 15.7825H12.5828C13.2063 15.7825 13.7135 16.2896 13.7135 16.9131V22.3262C13.7135 22.6984 14.0151 23 14.3874 23H18.0584C19.4251 23 20.5369 21.8884 20.5369 20.5221V13.6176H20.8836C21.4491 13.6176 21.9808 13.3974 22.3811 12.9973C23.2059 12.1721 23.2063 10.8297 22.3822 10.0039Z" fill="#DDDDDD"/>
</svg>
