<svg width="20" height="23" viewBox="0 0 20 23" fill="none" xmlns="http://www.w3.org/2000/svg">
<path d="M16.7583 3.01343H14.5471V2.08256C14.5471 1.78139 14.198 1.64451 13.878 1.64451H12.1615C11.7542 0.549352 10.7358 0.00177274 9.57207 0.00177274C8.42111 -0.0389459 7.37422 0.625182 6.98268 1.64451H5.29522C4.97518 1.64451 4.65514 1.78139 4.65514 2.08256V3.01343H2.44393C1.13359 3.02659 0.0615911 3.99933 0 5.23111V20.9192C0 22.1239 1.16377 23 2.44393 23H16.7583C18.0384 23 19.2022 22.1239 19.2022 20.9192V5.23116C19.1406 3.99933 18.0686 3.02659 16.7583 3.01343ZM5.81885 2.73967H7.41905C7.69838 2.7076 7.92275 2.50762 7.97187 2.24685C8.14417 1.54075 8.80246 1.03389 9.57207 1.01481C10.3346 1.03656 10.9829 1.54499 11.1431 2.24685C11.1953 2.51663 11.4345 2.71918 11.725 2.73967H13.3834V4.92999H5.81885V2.73967ZM18.0384 20.9193C18.0384 21.5216 17.3984 21.9049 16.7583 21.9049H2.44393C1.80385 21.9049 1.16377 21.5216 1.16377 20.9193V5.23116C1.22313 4.60418 1.77512 4.12012 2.44393 4.10864H4.65508V5.50497C4.68582 5.81175 4.96816 6.04123 5.29516 6.0252H13.8779C14.2109 6.04233 14.5021 5.816 14.5471 5.50497V4.10859H16.7582C17.427 4.12012 17.979 4.60413 18.0384 5.23111V20.9193H18.0384Z" fill="#383838"/>
<path d="M7.36 12.2402C7.14175 12.0237 6.77945 12.0115 6.54533 12.2128L4.68329 13.8829L3.89775 13.1163C3.67951 12.8998 3.3172 12.8876 3.08309 13.0889C2.85772 13.3111 2.85772 13.6607 3.08309 13.8829L4.27593 15.0328C4.37918 15.1416 4.52831 15.2018 4.68323 15.1971C4.83671 15.1951 4.98311 15.136 5.09054 15.0328L7.35988 13.0068C7.58486 12.8126 7.5999 12.4835 7.39346 12.2718C7.38288 12.2608 7.37169 12.2502 7.36 12.2402Z" fill="#383838"/>
<path d="M15.711 13.4175H9.01938C8.69801 13.4175 8.4375 13.6626 8.4375 13.9651C8.4375 14.2675 8.69801 14.5126 9.01938 14.5126H15.711C16.0324 14.5126 16.2929 14.2675 16.2929 13.9651C16.2929 13.6626 16.0324 13.4175 15.711 13.4175Z" fill="#383838"/>
<path d="M7.36 7.85956C7.14175 7.64307 6.77945 7.63086 6.54533 7.8322L4.68329 9.50229L3.89775 8.73566C3.67951 8.51918 3.3172 8.50697 3.08309 8.70831C2.85772 8.9305 2.85772 9.2801 3.08309 9.50229L4.27593 10.6522C4.37918 10.761 4.52831 10.8212 4.68323 10.8165C4.83671 10.8145 4.98311 10.7554 5.09054 10.6522L7.35988 8.62619C7.58486 8.43198 7.5999 8.10287 7.39346 7.89121C7.38288 7.88015 7.37169 7.86962 7.36 7.85956Z" fill="#383838"/>
<path d="M15.711 9.03674H9.01938C8.69801 9.03674 8.4375 9.28189 8.4375 9.58432C8.4375 9.88675 8.69801 10.1319 9.01938 10.1319H15.711C16.0324 10.1319 16.2929 9.88675 16.2929 9.58432C16.2929 9.28189 16.0324 9.03674 15.711 9.03674Z" fill="#383838"/>
<path d="M7.36 16.6208C7.14175 16.4043 6.77945 16.3921 6.54533 16.5934L4.68329 18.2635L3.89775 17.4969C3.67951 17.2804 3.3172 17.2682 3.08309 17.4695C2.85772 17.6917 2.85772 18.0413 3.08309 18.2635L4.27593 19.4134C4.37918 19.5222 4.52831 19.5824 4.68323 19.5777C4.83671 19.5757 4.98311 19.5166 5.09054 19.4134L7.35988 17.3874C7.58486 17.1932 7.5999 16.8641 7.39346 16.6524C7.38288 16.6414 7.37169 16.6309 7.36 16.6208Z" fill="#383838"/>
<path d="M15.711 17.7981H9.01938C8.69801 17.7981 8.4375 18.0432 8.4375 18.3457C8.4375 18.6481 8.69801 18.8933 9.01938 18.8933H15.711C16.0324 18.8933 16.2929 18.6481 16.2929 18.3457C16.2929 18.0432 16.0324 17.7981 15.711 17.7981Z" fill="#383838"/>
</svg>
