<svg width="1522" height="196" viewBox="0 0 1522 196" fill="none" xmlns="http://www.w3.org/2000/svg">
<rect y="0.537354" width="1521" height="195.149" fill="#F2F2F2"/>
<path d="M13.793 63.3999C13.793 62.758 13.5578 62.2489 13.0874 61.8726C12.6226 61.4907 11.9668 61.2998 11.1201 61.2998C10.4118 61.2998 9.81689 61.4963 9.33545 61.8892C8.85954 62.2765 8.62158 62.758 8.62158 63.3335H7.02783C7.02783 62.6916 7.20215 62.116 7.55078 61.6069C7.90495 61.0978 8.39746 60.7021 9.02832 60.4199C9.65918 60.1322 10.3564 59.9883 11.1201 59.9883C12.4704 59.9883 13.519 60.2926 14.2661 60.9014C15.0132 61.5046 15.3867 62.3457 15.3867 63.4248C15.3867 63.9837 15.2152 64.4928 14.8721 64.9521C14.529 65.4115 14.0503 65.7739 13.436 66.0396C14.8582 66.5155 15.5693 67.459 15.5693 68.8701C15.5693 69.9548 15.1654 70.8153 14.3574 71.4517C13.5495 72.0881 12.4704 72.4062 11.1201 72.4062C10.3177 72.4062 9.58724 72.2651 8.92871 71.9829C8.27572 71.6951 7.7666 71.2884 7.40137 70.7627C7.03613 70.237 6.85352 69.6117 6.85352 68.8867H8.44727C8.44727 69.5231 8.69906 70.0544 9.20264 70.4805C9.70622 70.901 10.3454 71.1113 11.1201 71.1113C11.9889 71.1113 12.6807 70.9093 13.1953 70.5054C13.7155 70.1014 13.9756 69.5674 13.9756 68.9033C13.9756 67.4867 13.0985 66.7645 11.3442 66.7368H9.8501V65.4253H11.3359C12.1439 65.4087 12.7554 65.2261 13.1704 64.8774C13.5854 64.5288 13.793 64.0363 13.793 63.3999ZM22.9902 72.2402C22.9017 72.0632 22.8298 71.7477 22.7744 71.2939C22.0605 72.0355 21.2083 72.4062 20.2178 72.4062C19.3324 72.4062 18.6047 72.1572 18.0347 71.6592C17.4702 71.1556 17.188 70.5192 17.188 69.75C17.188 68.8148 17.5422 68.0898 18.2505 67.5752C18.9644 67.055 19.966 66.7949 21.2554 66.7949H22.7495V66.0894C22.7495 65.5526 22.589 65.1265 22.2681 64.811C21.9471 64.4901 21.474 64.3296 20.8486 64.3296C20.3008 64.3296 19.8415 64.4679 19.4707 64.7446C19.0999 65.0213 18.9146 65.3561 18.9146 65.749H17.3706C17.3706 65.3008 17.5283 64.8691 17.8438 64.4541C18.1647 64.0335 18.5964 63.7015 19.1387 63.458C19.6865 63.2145 20.2869 63.0928 20.9399 63.0928C21.9748 63.0928 22.7855 63.3529 23.3721 63.873C23.9587 64.3877 24.263 65.0988 24.2852 66.0063V70.1401C24.2852 70.9647 24.3903 71.6204 24.6006 72.1074V72.2402H22.9902ZM20.4419 71.0698C20.9233 71.0698 21.3799 70.9453 21.8115 70.6963C22.2432 70.4473 22.5558 70.1235 22.7495 69.7251V67.8823H21.5459C19.6644 67.8823 18.7236 68.4329 18.7236 69.5342C18.7236 70.0156 18.8841 70.3919 19.2051 70.6631C19.526 70.9342 19.9383 71.0698 20.4419 71.0698ZM26.6177 70.9868L27.1489 70.3311C27.7466 69.5563 28.0869 68.3942 28.1699 66.8447L28.311 63.2588H34.0967V70.9868H35.2505V74.8799H33.7148V72.2402H27.4478V74.8799H25.9121L25.9204 70.9868H26.6177ZM28.4355 70.9868H32.561V64.6782H29.7969L29.7056 66.8198C29.6115 68.6073 29.1882 69.9963 28.4355 70.9868ZM42.4971 72.2402C42.4085 72.0632 42.3366 71.7477 42.2812 71.2939C41.5674 72.0355 40.7152 72.4062 39.7246 72.4062C38.8392 72.4062 38.1115 72.1572 37.5415 71.6592C36.9771 71.1556 36.6948 70.5192 36.6948 69.75C36.6948 68.8148 37.049 68.0898 37.7573 67.5752C38.4712 67.055 39.4728 66.7949 40.7622 66.7949H42.2563V66.0894C42.2563 65.5526 42.0959 65.1265 41.7749 64.811C41.4539 64.4901 40.9808 64.3296 40.3555 64.3296C39.8076 64.3296 39.3483 64.4679 38.9775 64.7446C38.6068 65.0213 38.4214 65.3561 38.4214 65.749H36.8774C36.8774 65.3008 37.0352 64.8691 37.3506 64.4541C37.6715 64.0335 38.1032 63.7015 38.6455 63.458C39.1934 63.2145 39.7938 63.0928 40.4468 63.0928C41.4816 63.0928 42.2923 63.3529 42.8789 63.873C43.4655 64.3877 43.7699 65.0988 43.792 66.0063V70.1401C43.792 70.9647 43.8971 71.6204 44.1074 72.1074V72.2402H42.4971ZM39.9487 71.0698C40.4302 71.0698 40.8867 70.9453 41.3184 70.6963C41.75 70.4473 42.0627 70.1235 42.2563 69.7251V67.8823H41.0527C39.1712 67.8823 38.2305 68.4329 38.2305 69.5342C38.2305 70.0156 38.391 70.3919 38.7119 70.6631C39.0329 70.9342 39.4451 71.0698 39.9487 71.0698ZM53.5371 72.2402H52.0015V68.4053H47.876V72.2402H46.332V63.2588H47.876V67.1519H52.0015V63.2588H53.5371V72.2402ZM61.8213 63.2588H63.3569V72.2402H61.8213V65.6909L57.6792 72.2402H56.1436V63.2588H57.6792V69.8164L61.8213 63.2588ZM69.5493 72.4062C68.3319 72.4062 67.3413 72.0078 66.5776 71.2109C65.814 70.4085 65.4321 69.3377 65.4321 67.9985V67.7163C65.4321 66.8254 65.6009 66.0312 65.9385 65.334C66.2816 64.6312 66.7575 64.0833 67.3662 63.6904C67.9805 63.292 68.6445 63.0928 69.3584 63.0928C70.526 63.0928 71.4336 63.4774 72.0811 64.2466C72.7285 65.0158 73.0522 66.117 73.0522 67.5503V68.1895H66.9678C66.9899 69.0749 67.2472 69.7915 67.7397 70.3394C68.2378 70.8817 68.8687 71.1528 69.6323 71.1528C70.1746 71.1528 70.634 71.0422 71.0103 70.8208C71.3866 70.5994 71.7158 70.3062 71.998 69.9409L72.936 70.6714C72.1834 71.828 71.0545 72.4062 69.5493 72.4062ZM69.3584 64.3545C68.7386 64.3545 68.2184 64.5814 67.7979 65.0352C67.3773 65.4834 67.1172 66.1143 67.0176 66.9277H71.5166V66.8115C71.4723 66.0312 71.262 65.4281 70.8857 65.002C70.5094 64.5703 70.0003 64.3545 69.3584 64.3545ZM83.9429 72.2402H82.3989V62.0054L79.3027 63.1426V61.748L83.7021 60.0962H83.9429V72.2402Z" fill="#245B9C"/>
<path d="M234.136 41.3008H227.313V39.9473L230.533 36.5156C230.975 36.0326 231.301 35.611 231.511 35.251C231.725 34.891 231.832 34.5492 231.832 34.2256C231.832 33.7835 231.72 33.4372 231.497 33.1865C231.274 32.9313 230.955 32.8037 230.54 32.8037C230.093 32.8037 229.74 32.9587 229.48 33.2686C229.225 33.5739 229.098 33.9772 229.098 34.4785H227.115C227.115 33.8724 227.259 33.3187 227.546 32.8174C227.838 32.3161 228.248 31.9242 228.776 31.6416C229.305 31.3545 229.904 31.2109 230.574 31.2109C231.6 31.2109 232.395 31.457 232.96 31.9492C233.53 32.4414 233.814 33.1364 233.814 34.0342C233.814 34.5264 233.687 35.0277 233.432 35.5381C233.176 36.0485 232.739 36.6432 232.119 37.3223L229.856 39.708H234.136V41.3008ZM241.197 37.5547H242.325V39.1475H241.197V41.3008H239.222V39.1475H235.141L235.052 37.9033L239.201 31.3477H241.197V37.5547ZM237.021 37.5547H239.222V34.041L239.092 34.2666L237.021 37.5547ZM243.576 40.3301C243.576 40.0156 243.681 39.7604 243.891 39.5645C244.105 39.3685 244.371 39.2705 244.69 39.2705C245.014 39.2705 245.281 39.3685 245.49 39.5645C245.704 39.7604 245.812 40.0156 245.812 40.3301C245.812 40.64 245.707 40.8929 245.497 41.0889C245.287 41.2803 245.019 41.376 244.69 41.376C244.367 41.376 244.1 41.2803 243.891 41.0889C243.681 40.8929 243.576 40.64 243.576 40.3301ZM254.165 37.1855C254.165 38.5618 253.88 39.6146 253.311 40.3438C252.741 41.0729 251.907 41.4375 250.809 41.4375C249.724 41.4375 248.895 41.0798 248.32 40.3643C247.746 39.6488 247.452 38.6234 247.438 37.2881V35.4561C247.438 34.0661 247.726 33.0111 248.3 32.291C248.879 31.571 249.71 31.2109 250.795 31.2109C251.88 31.2109 252.709 31.5687 253.283 32.2842C253.857 32.9951 254.151 34.0182 254.165 35.3535V37.1855ZM252.189 35.1758C252.189 34.3509 252.076 33.7516 251.848 33.3779C251.624 32.9997 251.273 32.8105 250.795 32.8105C250.33 32.8105 249.986 32.9906 249.763 33.3506C249.544 33.7061 249.428 34.2643 249.414 35.0254V37.4453C249.414 38.2565 249.523 38.8604 249.742 39.2568C249.965 39.6488 250.321 39.8447 250.809 39.8447C251.292 39.8447 251.64 39.6556 251.854 39.2773C252.069 38.8991 252.18 38.3203 252.189 37.541V35.1758ZM257.515 35.4492H258.567C259.069 35.4492 259.44 35.3239 259.682 35.0732C259.923 34.8226 260.044 34.4899 260.044 34.0752C260.044 33.6742 259.923 33.362 259.682 33.1387C259.445 32.9154 259.117 32.8037 258.697 32.8037C258.319 32.8037 258.002 32.9085 257.747 33.1182C257.492 33.3232 257.364 33.5921 257.364 33.9248H255.389C255.389 33.4053 255.528 32.9404 255.806 32.5303C256.088 32.1156 256.48 31.792 256.981 31.5596C257.487 31.3271 258.043 31.2109 258.649 31.2109C259.702 31.2109 260.527 31.4639 261.124 31.9697C261.721 32.471 262.02 33.1637 262.02 34.0479C262.02 34.5036 261.881 34.9229 261.603 35.3057C261.325 35.6885 260.96 35.9824 260.509 36.1875C261.069 36.388 261.486 36.6888 261.76 37.0898C262.038 37.4909 262.177 37.9648 262.177 38.5117C262.177 39.3958 261.853 40.1045 261.206 40.6377C260.563 41.1709 259.711 41.4375 258.649 41.4375C257.656 41.4375 256.842 41.1755 256.209 40.6514C255.58 40.1273 255.266 39.4346 255.266 38.5732H257.241C257.241 38.9469 257.38 39.2523 257.658 39.4893C257.941 39.7262 258.287 39.8447 258.697 39.8447C259.167 39.8447 259.534 39.7217 259.798 39.4756C260.067 39.2249 260.201 38.8945 260.201 38.4844C260.201 37.4909 259.654 36.9941 258.561 36.9941H257.515V35.4492ZM263.729 40.3301C263.729 40.0156 263.833 39.7604 264.043 39.5645C264.257 39.3685 264.524 39.2705 264.843 39.2705C265.166 39.2705 265.433 39.3685 265.643 39.5645C265.857 39.7604 265.964 40.0156 265.964 40.3301C265.964 40.64 265.859 40.8929 265.649 41.0889C265.44 41.2803 265.171 41.376 264.843 41.376C264.519 41.376 264.253 41.2803 264.043 41.0889C263.833 40.8929 263.729 40.64 263.729 40.3301ZM274.44 41.3008H267.618V39.9473L270.838 36.5156C271.28 36.0326 271.606 35.611 271.815 35.251C272.03 34.891 272.137 34.5492 272.137 34.2256C272.137 33.7835 272.025 33.4372 271.802 33.1865C271.578 32.9313 271.259 32.8037 270.845 32.8037C270.398 32.8037 270.045 32.9587 269.785 33.2686C269.53 33.5739 269.402 33.9772 269.402 34.4785H267.42C267.42 33.8724 267.563 33.3187 267.851 32.8174C268.142 32.3161 268.552 31.9242 269.081 31.6416C269.61 31.3545 270.209 31.2109 270.879 31.2109C271.904 31.2109 272.7 31.457 273.265 31.9492C273.834 32.4414 274.119 33.1364 274.119 34.0342C274.119 34.5264 273.992 35.0277 273.736 35.5381C273.481 36.0485 273.044 36.6432 272.424 37.3223L270.161 39.708H274.44V41.3008ZM280.456 41.3008H278.48V33.6855L276.122 34.417V32.8105L280.244 31.334H280.456V41.3008Z" fill="#383838"/>
<path d="M570.505 41.3008H563.683V39.9473L566.902 36.5156C567.344 36.0326 567.67 35.611 567.88 35.251C568.094 34.891 568.201 34.5492 568.201 34.2256C568.201 33.7835 568.09 33.4372 567.866 33.1865C567.643 32.9313 567.324 32.8037 566.909 32.8037C566.463 32.8037 566.109 32.9587 565.85 33.2686C565.594 33.5739 565.467 33.9772 565.467 34.4785H563.484C563.484 33.8724 563.628 33.3187 563.915 32.8174C564.207 32.3161 564.617 31.9242 565.146 31.6416C565.674 31.3545 566.273 31.2109 566.943 31.2109C567.969 31.2109 568.764 31.457 569.329 31.9492C569.899 32.4414 570.184 33.1364 570.184 34.0342C570.184 34.5264 570.056 35.0277 569.801 35.5381C569.546 36.0485 569.108 36.6432 568.488 37.3223L566.226 39.708H570.505V41.3008ZM577.566 37.5547H578.694V39.1475H577.566V41.3008H575.591V39.1475H571.51L571.421 37.9033L575.57 31.3477H577.566V37.5547ZM573.39 37.5547H575.591V34.041L575.461 34.2666L573.39 37.5547ZM579.945 40.3301C579.945 40.0156 580.05 39.7604 580.26 39.5645C580.474 39.3685 580.741 39.2705 581.06 39.2705C581.383 39.2705 581.65 39.3685 581.859 39.5645C582.074 39.7604 582.181 40.0156 582.181 40.3301C582.181 40.64 582.076 40.8929 581.866 41.0889C581.657 41.2803 581.388 41.376 581.06 41.376C580.736 41.376 580.469 41.2803 580.26 41.0889C580.05 40.8929 579.945 40.64 579.945 40.3301ZM590.534 37.1855C590.534 38.5618 590.249 39.6146 589.68 40.3438C589.11 41.0729 588.276 41.4375 587.178 41.4375C586.093 41.4375 585.264 41.0798 584.689 40.3643C584.115 39.6488 583.821 38.6234 583.808 37.2881V35.4561C583.808 34.0661 584.095 33.0111 584.669 32.291C585.248 31.571 586.079 31.2109 587.164 31.2109C588.249 31.2109 589.078 31.5687 589.652 32.2842C590.227 32.9951 590.521 34.0182 590.534 35.3535V37.1855ZM588.559 35.1758C588.559 34.3509 588.445 33.7516 588.217 33.3779C587.993 32.9997 587.643 32.8105 587.164 32.8105C586.699 32.8105 586.355 32.9906 586.132 33.3506C585.913 33.7061 585.797 34.2643 585.783 35.0254V37.4453C585.783 38.2565 585.893 38.8604 586.111 39.2568C586.335 39.6488 586.69 39.8447 587.178 39.8447C587.661 39.8447 588.009 39.6556 588.224 39.2773C588.438 38.8991 588.549 38.3203 588.559 37.541V35.1758ZM593.884 35.4492H594.937C595.438 35.4492 595.809 35.3239 596.051 35.0732C596.292 34.8226 596.413 34.4899 596.413 34.0752C596.413 33.6742 596.292 33.362 596.051 33.1387C595.814 32.9154 595.486 32.8037 595.066 32.8037C594.688 32.8037 594.371 32.9085 594.116 33.1182C593.861 33.3232 593.733 33.5921 593.733 33.9248H591.758C591.758 33.4053 591.897 32.9404 592.175 32.5303C592.457 32.1156 592.849 31.792 593.351 31.5596C593.856 31.3271 594.412 31.2109 595.019 31.2109C596.071 31.2109 596.896 31.4639 597.493 31.9697C598.09 32.471 598.389 33.1637 598.389 34.0479C598.389 34.5036 598.25 34.9229 597.972 35.3057C597.694 35.6885 597.329 35.9824 596.878 36.1875C597.438 36.388 597.855 36.6888 598.129 37.0898C598.407 37.4909 598.546 37.9648 598.546 38.5117C598.546 39.3958 598.222 40.1045 597.575 40.6377C596.933 41.1709 596.08 41.4375 595.019 41.4375C594.025 41.4375 593.212 41.1755 592.578 40.6514C591.949 40.1273 591.635 39.4346 591.635 38.5732H593.61C593.61 38.9469 593.749 39.2523 594.027 39.4893C594.31 39.7262 594.656 39.8447 595.066 39.8447C595.536 39.8447 595.903 39.7217 596.167 39.4756C596.436 39.2249 596.57 38.8945 596.57 38.4844C596.57 37.4909 596.023 36.9941 594.93 36.9941H593.884V35.4492ZM600.098 40.3301C600.098 40.0156 600.202 39.7604 600.412 39.5645C600.626 39.3685 600.893 39.2705 601.212 39.2705C601.535 39.2705 601.802 39.3685 602.012 39.5645C602.226 39.7604 602.333 40.0156 602.333 40.3301C602.333 40.64 602.228 40.8929 602.019 41.0889C601.809 41.2803 601.54 41.376 601.212 41.376C600.888 41.376 600.622 41.2803 600.412 41.0889C600.202 40.8929 600.098 40.64 600.098 40.3301ZM610.81 41.3008H603.987V39.9473L607.207 36.5156C607.649 36.0326 607.975 35.611 608.185 35.251C608.399 34.891 608.506 34.5492 608.506 34.2256C608.506 33.7835 608.394 33.4372 608.171 33.1865C607.948 32.9313 607.629 32.8037 607.214 32.8037C606.767 32.8037 606.414 32.9587 606.154 33.2686C605.899 33.5739 605.771 33.9772 605.771 34.4785H603.789C603.789 33.8724 603.933 33.3187 604.22 32.8174C604.511 32.3161 604.922 31.9242 605.45 31.6416C605.979 31.3545 606.578 31.2109 607.248 31.2109C608.273 31.2109 609.069 31.457 609.634 31.9492C610.203 32.4414 610.488 33.1364 610.488 34.0342C610.488 34.5264 610.361 35.0277 610.105 35.5381C609.85 36.0485 609.413 36.6432 608.793 37.3223L606.53 39.708H610.81V41.3008ZM616.825 41.3008H614.85V33.6855L612.491 34.417V32.8105L616.613 31.334H616.825V41.3008Z" fill="#383838"/>
<path d="M956.864 44.8231H950.042V43.4696L953.262 40.038C953.704 39.5549 954.03 39.1333 954.239 38.7733C954.453 38.4133 954.561 38.0715 954.561 37.7479C954.561 37.3059 954.449 36.9595 954.226 36.7089C954.002 36.4537 953.683 36.326 953.269 36.326C952.822 36.326 952.469 36.481 952.209 36.7909C951.954 37.0962 951.826 37.4996 951.826 38.0009H949.844C949.844 37.3947 949.987 36.841 950.274 36.3397C950.566 35.8384 950.976 35.4465 951.505 35.1639C952.034 34.8768 952.633 34.7333 953.303 34.7333C954.328 34.7333 955.123 34.9794 955.688 35.4716C956.258 35.9637 956.543 36.6587 956.543 37.5565C956.543 38.0487 956.415 38.55 956.16 39.0604C955.905 39.5708 955.467 40.1656 954.848 40.8446L952.585 43.2303H956.864V44.8231ZM963.926 41.077H965.054V42.6698H963.926V44.8231H961.95V42.6698H957.869L957.78 41.4257L961.93 34.87H963.926V41.077ZM959.749 41.077H961.95V37.5634L961.82 37.7889L959.749 41.077ZM966.305 43.8524C966.305 43.538 966.41 43.2828 966.619 43.0868C966.833 42.8908 967.1 42.7928 967.419 42.7928C967.743 42.7928 968.009 42.8908 968.219 43.0868C968.433 43.2828 968.54 43.538 968.54 43.8524C968.54 44.1623 968.435 44.4152 968.226 44.6112C968.016 44.8026 967.747 44.8983 967.419 44.8983C967.095 44.8983 966.829 44.8026 966.619 44.6112C966.41 44.4152 966.305 44.1623 966.305 43.8524ZM976.894 40.7079C976.894 42.0842 976.609 43.1369 976.039 43.8661C975.469 44.5953 974.635 44.9598 973.537 44.9598C972.452 44.9598 971.623 44.6021 971.049 43.8866C970.475 43.1711 970.181 42.1457 970.167 40.8104V38.9784C970.167 37.5884 970.454 36.5334 971.028 35.8134C971.607 35.0933 972.439 34.7333 973.523 34.7333C974.608 34.7333 975.438 35.091 976.012 35.8065C976.586 36.5175 976.88 37.5406 976.894 38.8759V40.7079ZM974.918 38.6981C974.918 37.8733 974.804 37.274 974.576 36.9003C974.353 36.522 974.002 36.3329 973.523 36.3329C973.059 36.3329 972.715 36.5129 972.491 36.8729C972.272 37.2284 972.156 37.7867 972.143 38.5477V40.9677C972.143 41.7788 972.252 42.3827 972.471 42.7792C972.694 43.1711 973.049 43.3671 973.537 43.3671C974.02 43.3671 974.369 43.1779 974.583 42.7997C974.797 42.4214 974.909 41.8427 974.918 41.0634V38.6981ZM980.243 38.9716H981.296C981.797 38.9716 982.169 38.8462 982.41 38.5956C982.652 38.3449 982.772 38.0122 982.772 37.5975C982.772 37.1965 982.652 36.8843 982.41 36.661C982.173 36.4377 981.845 36.326 981.426 36.326C981.048 36.326 980.731 36.4309 980.476 36.6405C980.22 36.8456 980.093 37.1145 980.093 37.4471H978.117C978.117 36.9276 978.256 36.4628 978.534 36.0526C978.817 35.6379 979.209 35.3143 979.71 35.0819C980.216 34.8495 980.772 34.7333 981.378 34.7333C982.431 34.7333 983.256 34.9862 983.853 35.4921C984.45 35.9934 984.748 36.6861 984.748 37.5702C984.748 38.0259 984.609 38.4452 984.331 38.828C984.053 39.2108 983.688 39.5048 983.237 39.7098C983.798 39.9104 984.215 40.2111 984.488 40.6122C984.766 41.0132 984.905 41.4872 984.905 42.0341C984.905 42.9182 984.582 43.6268 983.935 44.16C983.292 44.6932 982.44 44.9598 981.378 44.9598C980.384 44.9598 979.571 44.6978 978.938 44.1737C978.309 43.6496 977.994 42.9569 977.994 42.0956H979.97C979.97 42.4693 980.109 42.7746 980.387 43.0116C980.669 43.2486 981.016 43.3671 981.426 43.3671C981.895 43.3671 982.262 43.244 982.526 42.9979C982.795 42.7473 982.93 42.4169 982.93 42.0067C982.93 41.0132 982.383 40.5165 981.289 40.5165H980.243V38.9716ZM986.457 43.8524C986.457 43.538 986.562 43.2828 986.771 43.0868C986.986 42.8908 987.252 42.7928 987.571 42.7928C987.895 42.7928 988.161 42.8908 988.371 43.0868C988.585 43.2828 988.692 43.538 988.692 43.8524C988.692 44.1623 988.588 44.4152 988.378 44.6112C988.168 44.8026 987.899 44.8983 987.571 44.8983C987.248 44.8983 986.981 44.8026 986.771 44.6112C986.562 44.4152 986.457 44.1623 986.457 43.8524ZM997.169 44.8231H990.347V43.4696L993.566 40.038C994.008 39.5549 994.334 39.1333 994.544 38.7733C994.758 38.4133 994.865 38.0715 994.865 37.7479C994.865 37.3059 994.754 36.9595 994.53 36.7089C994.307 36.4537 993.988 36.326 993.573 36.326C993.127 36.326 992.773 36.481 992.514 36.7909C992.258 37.0962 992.131 37.4996 992.131 38.0009H990.148C990.148 37.3947 990.292 36.841 990.579 36.3397C990.871 35.8384 991.281 35.4465 991.81 35.1639C992.338 34.8768 992.938 34.7333 993.607 34.7333C994.633 34.7333 995.428 34.9794 995.993 35.4716C996.563 35.9637 996.848 36.6587 996.848 37.5565C996.848 38.0487 996.72 38.55 996.465 39.0604C996.21 39.5708 995.772 40.1656 995.152 40.8446L992.89 43.2303H997.169V44.8231ZM1003.18 44.8231H1001.21V37.2079L998.851 37.9393V36.3329L1002.97 34.8563H1003.18V44.8231Z" fill="#383838"/>
<path d="M1468.2 41.3008H1461.38V39.9473L1464.6 36.5156C1465.04 36.0326 1465.37 35.611 1465.58 35.251C1465.79 34.891 1465.9 34.5492 1465.9 34.2256C1465.9 33.7835 1465.79 33.4372 1465.57 33.1865C1465.34 32.9313 1465.02 32.8037 1464.61 32.8037C1464.16 32.8037 1463.81 32.9587 1463.55 33.2686C1463.29 33.5739 1463.17 33.9772 1463.17 34.4785H1461.18C1461.18 33.8724 1461.33 33.3187 1461.61 32.8174C1461.91 32.3161 1462.32 31.9242 1462.84 31.6416C1463.37 31.3545 1463.97 31.2109 1464.64 31.2109C1465.67 31.2109 1466.46 31.457 1467.03 31.9492C1467.6 32.4414 1467.88 33.1364 1467.88 34.0342C1467.88 34.5264 1467.76 35.0277 1467.5 35.5381C1467.24 36.0485 1466.81 36.6432 1466.19 37.3223L1463.92 39.708H1468.2V41.3008ZM1475.27 37.5547H1476.39V39.1475H1475.27V41.3008H1473.29V39.1475H1469.21L1469.12 37.9033L1473.27 31.3477H1475.27V37.5547ZM1471.09 37.5547H1473.29V34.041L1473.16 34.2666L1471.09 37.5547ZM1477.64 40.3301C1477.64 40.0156 1477.75 39.7604 1477.96 39.5645C1478.17 39.3685 1478.44 39.2705 1478.76 39.2705C1479.08 39.2705 1479.35 39.3685 1479.56 39.5645C1479.77 39.7604 1479.88 40.0156 1479.88 40.3301C1479.88 40.64 1479.78 40.8929 1479.57 41.0889C1479.36 41.2803 1479.09 41.376 1478.76 41.376C1478.44 41.376 1478.17 41.2803 1477.96 41.0889C1477.75 40.8929 1477.64 40.64 1477.64 40.3301ZM1488.23 37.1855C1488.23 38.5618 1487.95 39.6146 1487.38 40.3438C1486.81 41.0729 1485.98 41.4375 1484.88 41.4375C1483.79 41.4375 1482.96 41.0798 1482.39 40.3643C1481.81 39.6488 1481.52 38.6234 1481.51 37.2881V35.4561C1481.51 34.0661 1481.79 33.0111 1482.37 32.291C1482.95 31.571 1483.78 31.2109 1484.86 31.2109C1485.95 31.2109 1486.78 31.5687 1487.35 32.2842C1487.93 32.9951 1488.22 34.0182 1488.23 35.3535V37.1855ZM1486.26 35.1758C1486.26 34.3509 1486.14 33.7516 1485.92 33.3779C1485.69 32.9997 1485.34 32.8105 1484.86 32.8105C1484.4 32.8105 1484.05 32.9906 1483.83 33.3506C1483.61 33.7061 1483.5 34.2643 1483.48 35.0254V37.4453C1483.48 38.2565 1483.59 38.8604 1483.81 39.2568C1484.03 39.6488 1484.39 39.8447 1484.88 39.8447C1485.36 39.8447 1485.71 39.6556 1485.92 39.2773C1486.14 38.8991 1486.25 38.3203 1486.26 37.541V35.1758ZM1491.58 35.4492H1492.64C1493.14 35.4492 1493.51 35.3239 1493.75 35.0732C1493.99 34.8226 1494.11 34.4899 1494.11 34.0752C1494.11 33.6742 1493.99 33.362 1493.75 33.1387C1493.51 32.9154 1493.18 32.8037 1492.77 32.8037C1492.39 32.8037 1492.07 32.9085 1491.82 33.1182C1491.56 33.3232 1491.43 33.5921 1491.43 33.9248H1489.46C1489.46 33.4053 1489.6 32.9404 1489.87 32.5303C1490.16 32.1156 1490.55 31.792 1491.05 31.5596C1491.56 31.3271 1492.11 31.2109 1492.72 31.2109C1493.77 31.2109 1494.6 31.4639 1495.19 31.9697C1495.79 32.471 1496.09 33.1637 1496.09 34.0479C1496.09 34.5036 1495.95 34.9229 1495.67 35.3057C1495.39 35.6885 1495.03 35.9824 1494.58 36.1875C1495.14 36.388 1495.55 36.6888 1495.83 37.0898C1496.11 37.4909 1496.25 37.9648 1496.25 38.5117C1496.25 39.3958 1495.92 40.1045 1495.27 40.6377C1494.63 41.1709 1493.78 41.4375 1492.72 41.4375C1491.72 41.4375 1490.91 41.1755 1490.28 40.6514C1489.65 40.1273 1489.33 39.4346 1489.33 38.5732H1491.31C1491.31 38.9469 1491.45 39.2523 1491.73 39.4893C1492.01 39.7262 1492.36 39.8447 1492.77 39.8447C1493.24 39.8447 1493.6 39.7217 1493.87 39.4756C1494.14 39.2249 1494.27 38.8945 1494.27 38.4844C1494.27 37.4909 1493.72 36.9941 1492.63 36.9941H1491.58V35.4492ZM1497.8 40.3301C1497.8 40.0156 1497.9 39.7604 1498.11 39.5645C1498.33 39.3685 1498.59 39.2705 1498.91 39.2705C1499.23 39.2705 1499.5 39.3685 1499.71 39.5645C1499.93 39.7604 1500.03 40.0156 1500.03 40.3301C1500.03 40.64 1499.93 40.8929 1499.72 41.0889C1499.51 41.2803 1499.24 41.376 1498.91 41.376C1498.59 41.376 1498.32 41.2803 1498.11 41.0889C1497.9 40.8929 1497.8 40.64 1497.8 40.3301ZM1508.51 41.3008H1501.69V39.9473L1504.91 36.5156C1505.35 36.0326 1505.67 35.611 1505.88 35.251C1506.1 34.891 1506.21 34.5492 1506.21 34.2256C1506.21 33.7835 1506.09 33.4372 1505.87 33.1865C1505.65 32.9313 1505.33 32.8037 1504.91 32.8037C1504.47 32.8037 1504.11 32.9587 1503.85 33.2686C1503.6 33.5739 1503.47 33.9772 1503.47 34.4785H1501.49C1501.49 33.8724 1501.63 33.3187 1501.92 32.8174C1502.21 32.3161 1502.62 31.9242 1503.15 31.6416C1503.68 31.3545 1504.28 31.2109 1504.95 31.2109C1505.97 31.2109 1506.77 31.457 1507.33 31.9492C1507.9 32.4414 1508.19 33.1364 1508.19 34.0342C1508.19 34.5264 1508.06 35.0277 1507.8 35.5381C1507.55 36.0485 1507.11 36.6432 1506.49 37.3223L1504.23 39.708H1508.51V41.3008ZM1514.52 41.3008H1512.55V33.6855L1510.19 34.417V32.8105L1514.31 31.334H1514.52V41.3008Z" fill="#383838"/>
<path d="M13.793 94.9449C13.793 94.303 13.5578 93.7939 13.0874 93.4176C12.6226 93.0358 11.9668 92.8448 11.1201 92.8448C10.4118 92.8448 9.81689 93.0413 9.33545 93.4342C8.85954 93.8216 8.62158 94.303 8.62158 94.8785H7.02783C7.02783 94.2366 7.20215 93.6611 7.55078 93.152C7.90495 92.6429 8.39746 92.2472 9.02832 91.965C9.65918 91.6772 10.3564 91.5333 11.1201 91.5333C12.4704 91.5333 13.519 91.8377 14.2661 92.4464C15.0132 93.0496 15.3867 93.8907 15.3867 94.9698C15.3867 95.5288 15.2152 96.0379 14.8721 96.4972C14.529 96.9565 14.0503 97.319 13.436 97.5846C14.8582 98.0605 15.5693 99.004 15.5693 100.415C15.5693 101.5 15.1654 102.36 14.3574 102.997C13.5495 103.633 12.4704 103.951 11.1201 103.951C10.3177 103.951 9.58724 103.81 8.92871 103.528C8.27572 103.24 7.7666 102.833 7.40137 102.308C7.03613 101.782 6.85352 101.157 6.85352 100.432H8.44727C8.44727 101.068 8.69906 101.599 9.20264 102.026C9.70622 102.446 10.3454 102.656 11.1201 102.656C11.9889 102.656 12.6807 102.454 13.1953 102.05C13.7155 101.646 13.9756 101.112 13.9756 100.448C13.9756 99.0317 13.0985 98.3095 11.3442 98.2819H9.8501V96.9703H11.3359C12.1439 96.9537 12.7554 96.7711 13.1704 96.4225C13.5854 96.0739 13.793 95.5813 13.793 94.9449ZM22.9902 103.785C22.9017 103.608 22.8298 103.293 22.7744 102.839C22.0605 103.581 21.2083 103.951 20.2178 103.951C19.3324 103.951 18.6047 103.702 18.0347 103.204C17.4702 102.701 17.188 102.064 17.188 101.295C17.188 100.36 17.5422 99.6349 18.2505 99.1202C18.9644 98.6001 19.966 98.34 21.2554 98.34H22.7495V97.6344C22.7495 97.0976 22.589 96.6715 22.2681 96.3561C21.9471 96.0351 21.474 95.8746 20.8486 95.8746C20.3008 95.8746 19.8415 96.013 19.4707 96.2897C19.0999 96.5664 18.9146 96.9012 18.9146 97.2941H17.3706C17.3706 96.8458 17.5283 96.4142 17.8438 95.9991C18.1647 95.5786 18.5964 95.2465 19.1387 95.0031C19.6865 94.7596 20.2869 94.6378 20.9399 94.6378C21.9748 94.6378 22.7855 94.8979 23.3721 95.4181C23.9587 95.9327 24.263 96.6438 24.2852 97.5514V101.685C24.2852 102.51 24.3903 103.165 24.6006 103.652V103.785H22.9902ZM20.4419 102.615C20.9233 102.615 21.3799 102.49 21.8115 102.241C22.2432 101.992 22.5558 101.669 22.7495 101.27V99.4274H21.5459C19.6644 99.4274 18.7236 99.978 18.7236 101.079C18.7236 101.561 18.8841 101.937 19.2051 102.208C19.526 102.479 19.9383 102.615 20.4419 102.615ZM26.6177 102.532L27.1489 101.876C27.7466 101.101 28.0869 99.9392 28.1699 98.3898L28.311 94.8038H34.0967V102.532H35.2505V106.425H33.7148V103.785H27.4478V106.425H25.9121L25.9204 102.532H26.6177ZM28.4355 102.532H32.561V96.2233H29.7969L29.7056 98.3649C29.6115 100.152 29.1882 101.541 28.4355 102.532ZM42.4971 103.785C42.4085 103.608 42.3366 103.293 42.2812 102.839C41.5674 103.581 40.7152 103.951 39.7246 103.951C38.8392 103.951 38.1115 103.702 37.5415 103.204C36.9771 102.701 36.6948 102.064 36.6948 101.295C36.6948 100.36 37.049 99.6349 37.7573 99.1202C38.4712 98.6001 39.4728 98.34 40.7622 98.34H42.2563V97.6344C42.2563 97.0976 42.0959 96.6715 41.7749 96.3561C41.4539 96.0351 40.9808 95.8746 40.3555 95.8746C39.8076 95.8746 39.3483 96.013 38.9775 96.2897C38.6068 96.5664 38.4214 96.9012 38.4214 97.2941H36.8774C36.8774 96.8458 37.0352 96.4142 37.3506 95.9991C37.6715 95.5786 38.1032 95.2465 38.6455 95.0031C39.1934 94.7596 39.7938 94.6378 40.4468 94.6378C41.4816 94.6378 42.2923 94.8979 42.8789 95.4181C43.4655 95.9327 43.7699 96.6438 43.792 97.5514V101.685C43.792 102.51 43.8971 103.165 44.1074 103.652V103.785H42.4971ZM39.9487 102.615C40.4302 102.615 40.8867 102.49 41.3184 102.241C41.75 101.992 42.0627 101.669 42.2563 101.27V99.4274H41.0527C39.1712 99.4274 38.2305 99.978 38.2305 101.079C38.2305 101.561 38.391 101.937 38.7119 102.208C39.0329 102.479 39.4451 102.615 39.9487 102.615ZM53.5371 103.785H52.0015V99.9503H47.876V103.785H46.332V94.8038H47.876V98.6969H52.0015V94.8038H53.5371V103.785ZM61.8213 94.8038H63.3569V103.785H61.8213V97.236L57.6792 103.785H56.1436V94.8038H57.6792V101.361L61.8213 94.8038ZM69.5493 103.951C68.3319 103.951 67.3413 103.553 66.5776 102.756C65.814 101.954 65.4321 100.883 65.4321 99.5436V99.2614C65.4321 98.3704 65.6009 97.5763 65.9385 96.879C66.2816 96.1762 66.7575 95.6284 67.3662 95.2355C67.9805 94.837 68.6445 94.6378 69.3584 94.6378C70.526 94.6378 71.4336 95.0224 72.0811 95.7916C72.7285 96.5608 73.0522 97.6621 73.0522 99.0953V99.7345H66.9678C66.9899 100.62 67.2472 101.337 67.7397 101.884C68.2378 102.427 68.8687 102.698 69.6323 102.698C70.1746 102.698 70.634 102.587 71.0103 102.366C71.3866 102.144 71.7158 101.851 71.998 101.486L72.936 102.216C72.1834 103.373 71.0545 103.951 69.5493 103.951ZM69.3584 95.8995C68.7386 95.8995 68.2184 96.1264 67.7979 96.5802C67.3773 97.0284 67.1172 97.6593 67.0176 98.4728H71.5166V98.3566C71.4723 97.5763 71.262 96.9731 70.8857 96.547C70.5094 96.1154 70.0003 95.8995 69.3584 95.8995ZM86.8149 103.785H78.896V102.681L83.0796 98.0328C83.6994 97.33 84.1255 96.7601 84.3579 96.3229C84.5959 95.8802 84.7148 95.4236 84.7148 94.9532C84.7148 94.3224 84.5239 93.805 84.1421 93.401C83.7603 92.997 83.2511 92.795 82.6147 92.795C81.8511 92.795 81.2562 93.0136 80.8301 93.4508C80.4095 93.8824 80.1992 94.4856 80.1992 95.2604H78.6636C78.6636 94.1481 79.0205 93.2488 79.7344 92.5626C80.4538 91.8764 81.4139 91.5333 82.6147 91.5333C83.7381 91.5333 84.6263 91.8294 85.2793 92.4215C85.9323 93.0081 86.2588 93.7911 86.2588 94.7706C86.2588 95.9604 85.5007 97.3771 83.9844 99.0206L80.7471 102.532H86.8149V103.785Z" fill="#245B9C"/>
<path d="M13.793 126.49C13.793 125.848 13.5578 125.338 13.0874 124.962C12.6226 124.58 11.9668 124.389 11.1201 124.389C10.4118 124.389 9.81689 124.586 9.33545 124.979C8.85954 125.366 8.62158 125.848 8.62158 126.423H7.02783C7.02783 125.781 7.20215 125.206 7.55078 124.697C7.90495 124.187 8.39746 123.792 9.02832 123.51C9.65918 123.222 10.3564 123.078 11.1201 123.078C12.4704 123.078 13.519 123.382 14.2661 123.991C15.0132 124.594 15.3867 125.435 15.3867 126.514C15.3867 127.073 15.2152 127.582 14.8721 128.042C14.529 128.501 14.0503 128.864 13.436 129.129C14.8582 129.605 15.5693 130.549 15.5693 131.96C15.5693 133.044 15.1654 133.905 14.3574 134.541C13.5495 135.178 12.4704 135.496 11.1201 135.496C10.3177 135.496 9.58724 135.355 8.92871 135.073C8.27572 134.785 7.7666 134.378 7.40137 133.852C7.03613 133.327 6.85352 132.701 6.85352 131.976H8.44727C8.44727 132.613 8.69906 133.144 9.20264 133.57C9.70622 133.991 10.3454 134.201 11.1201 134.201C11.9889 134.201 12.6807 133.999 13.1953 133.595C13.7155 133.191 13.9756 132.657 13.9756 131.993C13.9756 130.576 13.0985 129.854 11.3442 129.826H9.8501V128.515H11.3359C12.1439 128.498 12.7554 128.316 13.1704 127.967C13.5854 127.618 13.793 127.126 13.793 126.49ZM22.9902 135.33C22.9017 135.153 22.8298 134.837 22.7744 134.384C22.0605 135.125 21.2083 135.496 20.2178 135.496C19.3324 135.496 18.6047 135.247 18.0347 134.749C17.4702 134.245 17.188 133.609 17.188 132.84C17.188 131.904 17.5422 131.179 18.2505 130.665C18.9644 130.145 19.966 129.885 21.2554 129.885H22.7495V129.179C22.7495 128.642 22.589 128.216 22.2681 127.901C21.9471 127.58 21.474 127.419 20.8486 127.419C20.3008 127.419 19.8415 127.558 19.4707 127.834C19.0999 128.111 18.9146 128.446 18.9146 128.839H17.3706C17.3706 128.39 17.5283 127.959 17.8438 127.544C18.1647 127.123 18.5964 126.791 19.1387 126.548C19.6865 126.304 20.2869 126.182 20.9399 126.182C21.9748 126.182 22.7855 126.442 23.3721 126.963C23.9587 127.477 24.263 128.188 24.2852 129.096V133.23C24.2852 134.054 24.3903 134.71 24.6006 135.197V135.33H22.9902ZM20.4419 134.159C20.9233 134.159 21.3799 134.035 21.8115 133.786C22.2432 133.537 22.5558 133.213 22.7495 132.815V130.972H21.5459C19.6644 130.972 18.7236 131.523 18.7236 132.624C18.7236 133.105 18.8841 133.482 19.2051 133.753C19.526 134.024 19.9383 134.159 20.4419 134.159ZM26.6177 134.076L27.1489 133.421C27.7466 132.646 28.0869 131.484 28.1699 129.934L28.311 126.348H34.0967V134.076H35.2505V137.969H33.7148V135.33H27.4478V137.969H25.9121L25.9204 134.076H26.6177ZM28.4355 134.076H32.561V127.768H29.7969L29.7056 129.909C29.6115 131.697 29.1882 133.086 28.4355 134.076ZM42.4971 135.33C42.4085 135.153 42.3366 134.837 42.2812 134.384C41.5674 135.125 40.7152 135.496 39.7246 135.496C38.8392 135.496 38.1115 135.247 37.5415 134.749C36.9771 134.245 36.6948 133.609 36.6948 132.84C36.6948 131.904 37.049 131.179 37.7573 130.665C38.4712 130.145 39.4728 129.885 40.7622 129.885H42.2563V129.179C42.2563 128.642 42.0959 128.216 41.7749 127.901C41.4539 127.58 40.9808 127.419 40.3555 127.419C39.8076 127.419 39.3483 127.558 38.9775 127.834C38.6068 128.111 38.4214 128.446 38.4214 128.839H36.8774C36.8774 128.39 37.0352 127.959 37.3506 127.544C37.6715 127.123 38.1032 126.791 38.6455 126.548C39.1934 126.304 39.7938 126.182 40.4468 126.182C41.4816 126.182 42.2923 126.442 42.8789 126.963C43.4655 127.477 43.7699 128.188 43.792 129.096V133.23C43.792 134.054 43.8971 134.71 44.1074 135.197V135.33H42.4971ZM39.9487 134.159C40.4302 134.159 40.8867 134.035 41.3184 133.786C41.75 133.537 42.0627 133.213 42.2563 132.815V130.972H41.0527C39.1712 130.972 38.2305 131.523 38.2305 132.624C38.2305 133.105 38.391 133.482 38.7119 133.753C39.0329 134.024 39.4451 134.159 39.9487 134.159ZM53.5371 135.33H52.0015V131.495H47.876V135.33H46.332V126.348H47.876V130.241H52.0015V126.348H53.5371V135.33ZM61.8213 126.348H63.3569V135.33H61.8213V128.781L57.6792 135.33H56.1436V126.348H57.6792V132.906L61.8213 126.348ZM69.5493 135.496C68.3319 135.496 67.3413 135.097 66.5776 134.301C65.814 133.498 65.4321 132.427 65.4321 131.088V130.806C65.4321 129.915 65.6009 129.121 65.9385 128.424C66.2816 127.721 66.7575 127.173 67.3662 126.78C67.9805 126.382 68.6445 126.182 69.3584 126.182C70.526 126.182 71.4336 126.567 72.0811 127.336C72.7285 128.105 73.0522 129.207 73.0522 130.64V131.279H66.9678C66.9899 132.164 67.2472 132.881 67.7397 133.429C68.2378 133.971 68.8687 134.242 69.6323 134.242C70.1746 134.242 70.634 134.132 71.0103 133.91C71.3866 133.689 71.7158 133.396 71.998 133.031L72.936 133.761C72.1834 134.918 71.0545 135.496 69.5493 135.496ZM69.3584 127.444C68.7386 127.444 68.2184 127.671 67.7979 128.125C67.3773 128.573 67.1172 129.204 67.0176 130.017H71.5166V129.901C71.4723 129.121 71.262 128.518 70.8857 128.092C70.5094 127.66 70.0003 127.444 69.3584 127.444ZM81.1289 128.54H82.2827C83.0076 128.529 83.5776 128.338 83.9927 127.967C84.4077 127.596 84.6152 127.095 84.6152 126.465C84.6152 125.048 83.9097 124.34 82.4985 124.34C81.8345 124.34 81.3032 124.531 80.9048 124.912C80.5119 125.289 80.3154 125.789 80.3154 126.415H78.7798C78.7798 125.457 79.1284 124.663 79.8257 124.032C80.5285 123.396 81.4194 123.078 82.4985 123.078C83.6385 123.078 84.5322 123.379 85.1797 123.983C85.8271 124.586 86.1509 125.424 86.1509 126.498C86.1509 127.024 85.9793 127.533 85.6362 128.025C85.2987 128.518 84.8366 128.886 84.25 129.129C84.9141 129.339 85.4259 129.688 85.7856 130.175C86.1509 130.662 86.3335 131.257 86.3335 131.96C86.3335 133.044 85.9793 133.905 85.271 134.541C84.5627 135.178 83.6413 135.496 82.5068 135.496C81.3724 135.496 80.4482 135.189 79.7344 134.574C79.026 133.96 78.6719 133.149 78.6719 132.142H80.2158C80.2158 132.779 80.4233 133.288 80.8384 133.67C81.2534 134.052 81.8096 134.242 82.5068 134.242C83.2484 134.242 83.8156 134.049 84.2085 133.661C84.6014 133.274 84.7979 132.718 84.7979 131.993C84.7979 131.29 84.582 130.751 84.1504 130.374C83.7188 129.998 83.0962 129.804 82.2827 129.793H81.1289V128.54Z" fill="#245B9C"/>
<path d="M13.793 158.034C13.793 157.392 13.5578 156.883 13.0874 156.507C12.6226 156.125 11.9668 155.934 11.1201 155.934C10.4118 155.934 9.81689 156.131 9.33545 156.524C8.85954 156.911 8.62158 157.392 8.62158 157.968H7.02783C7.02783 157.326 7.20215 156.751 7.55078 156.241C7.90495 155.732 8.39746 155.337 9.02832 155.054C9.65918 154.767 10.3564 154.623 11.1201 154.623C12.4704 154.623 13.519 154.927 14.2661 155.536C15.0132 156.139 15.3867 156.98 15.3867 158.059C15.3867 158.618 15.2152 159.127 14.8721 159.587C14.529 160.046 14.0503 160.408 13.436 160.674C14.8582 161.15 15.5693 162.094 15.5693 163.505C15.5693 164.589 15.1654 165.45 14.3574 166.086C13.5495 166.723 12.4704 167.041 11.1201 167.041C10.3177 167.041 9.58724 166.9 8.92871 166.617C8.27572 166.33 7.7666 165.923 7.40137 165.397C7.03613 164.872 6.85352 164.246 6.85352 163.521H8.44727C8.44727 164.158 8.69906 164.689 9.20264 165.115C9.70622 165.536 10.3454 165.746 11.1201 165.746C11.9889 165.746 12.6807 165.544 13.1953 165.14C13.7155 164.736 13.9756 164.202 13.9756 163.538C13.9756 162.121 13.0985 161.399 11.3442 161.371H9.8501V160.06H11.3359C12.1439 160.043 12.7554 159.861 13.1704 159.512C13.5854 159.163 13.793 158.671 13.793 158.034ZM22.9902 166.875C22.9017 166.698 22.8298 166.382 22.7744 165.928C22.0605 166.67 21.2083 167.041 20.2178 167.041C19.3324 167.041 18.6047 166.792 18.0347 166.294C17.4702 165.79 17.188 165.154 17.188 164.385C17.188 163.449 17.5422 162.724 18.2505 162.21C18.9644 161.69 19.966 161.429 21.2554 161.429H22.7495V160.724C22.7495 160.187 22.589 159.761 22.2681 159.446C21.9471 159.125 21.474 158.964 20.8486 158.964C20.3008 158.964 19.8415 159.102 19.4707 159.379C19.0999 159.656 18.9146 159.991 18.9146 160.384H17.3706C17.3706 159.935 17.5283 159.504 17.8438 159.089C18.1647 158.668 18.5964 158.336 19.1387 158.093C19.6865 157.849 20.2869 157.727 20.9399 157.727C21.9748 157.727 22.7855 157.987 23.3721 158.508C23.9587 159.022 24.263 159.733 24.2852 160.641V164.775C24.2852 165.599 24.3903 166.255 24.6006 166.742V166.875H22.9902ZM20.4419 165.704C20.9233 165.704 21.3799 165.58 21.8115 165.331C22.2432 165.082 22.5558 164.758 22.7495 164.36V162.517H21.5459C19.6644 162.517 18.7236 163.067 18.7236 164.169C18.7236 164.65 18.8841 165.026 19.2051 165.298C19.526 165.569 19.9383 165.704 20.4419 165.704ZM26.6177 165.621L27.1489 164.966C27.7466 164.191 28.0869 163.029 28.1699 161.479L28.311 157.893H34.0967V165.621H35.2505V169.514H33.7148V166.875H27.4478V169.514H25.9121L25.9204 165.621H26.6177ZM28.4355 165.621H32.561V159.313H29.7969L29.7056 161.454C29.6115 163.242 29.1882 164.631 28.4355 165.621ZM42.4971 166.875C42.4085 166.698 42.3366 166.382 42.2812 165.928C41.5674 166.67 40.7152 167.041 39.7246 167.041C38.8392 167.041 38.1115 166.792 37.5415 166.294C36.9771 165.79 36.6948 165.154 36.6948 164.385C36.6948 163.449 37.049 162.724 37.7573 162.21C38.4712 161.69 39.4728 161.429 40.7622 161.429H42.2563V160.724C42.2563 160.187 42.0959 159.761 41.7749 159.446C41.4539 159.125 40.9808 158.964 40.3555 158.964C39.8076 158.964 39.3483 159.102 38.9775 159.379C38.6068 159.656 38.4214 159.991 38.4214 160.384H36.8774C36.8774 159.935 37.0352 159.504 37.3506 159.089C37.6715 158.668 38.1032 158.336 38.6455 158.093C39.1934 157.849 39.7938 157.727 40.4468 157.727C41.4816 157.727 42.2923 157.987 42.8789 158.508C43.4655 159.022 43.7699 159.733 43.792 160.641V164.775C43.792 165.599 43.8971 166.255 44.1074 166.742V166.875H42.4971ZM39.9487 165.704C40.4302 165.704 40.8867 165.58 41.3184 165.331C41.75 165.082 42.0627 164.758 42.2563 164.36V162.517H41.0527C39.1712 162.517 38.2305 163.067 38.2305 164.169C38.2305 164.65 38.391 165.026 38.7119 165.298C39.0329 165.569 39.4451 165.704 39.9487 165.704ZM53.5371 166.875H52.0015V163.04H47.876V166.875H46.332V157.893H47.876V161.786H52.0015V157.893H53.5371V166.875ZM61.8213 157.893H63.3569V166.875H61.8213V160.325L57.6792 166.875H56.1436V157.893H57.6792V164.451L61.8213 157.893ZM69.5493 167.041C68.3319 167.041 67.3413 166.642 66.5776 165.845C65.814 165.043 65.4321 163.972 65.4321 162.633V162.351C65.4321 161.46 65.6009 160.666 65.9385 159.969C66.2816 159.266 66.7575 158.718 67.3662 158.325C67.9805 157.927 68.6445 157.727 69.3584 157.727C70.526 157.727 71.4336 158.112 72.0811 158.881C72.7285 159.65 73.0522 160.752 73.0522 162.185V162.824H66.9678C66.9899 163.709 67.2472 164.426 67.7397 164.974C68.2378 165.516 68.8687 165.787 69.6323 165.787C70.1746 165.787 70.634 165.677 71.0103 165.455C71.3866 165.234 71.7158 164.941 71.998 164.575L72.936 165.306C72.1834 166.462 71.0545 167.041 69.5493 167.041ZM69.3584 158.989C68.7386 158.989 68.2184 159.216 67.7979 159.67C67.3773 160.118 67.1172 160.749 67.0176 161.562H71.5166V161.446C71.4723 160.666 71.262 160.063 70.8857 159.636C70.5094 159.205 70.0003 158.989 69.3584 158.989ZM85.3789 162.816H87.0557V164.069H85.3789V166.875H83.835V164.069H78.3315V163.164L83.7437 154.789H85.3789V162.816ZM80.0747 162.816H83.835V156.889L83.6523 157.221L80.0747 162.816Z" fill="#245B9C"/>
<line x1="107.676" y1="49.7306" x2="107.676" y2="195.686" stroke="#383838" stroke-width="2"/>
<line x1="287.928" y1="49.7306" x2="287.928" y2="195.686" stroke="#383838"/>
<line x1="622.691" y1="49.7306" x2="622.691" y2="195.686" stroke="#383838"/>
<line x1="1008.08" y1="49.7306" x2="1008.08" y2="195.686" stroke="#383838"/>
<line x1="1521.5" y1="49.7306" x2="1521.5" y2="195.686" stroke="#383838"/>
<rect x="109.092" y="63.2587" width="178.333" height="8.98157" fill="#5163A3"/>
<rect x="109.092" y="93.7483" width="513.098" height="8.98157" fill="#579C66"/>
<rect x="898.178" y="156.838" width="622.823" height="8.98157" fill="#83528F"/>
<rect x="390.955" y="135.298" width="616.625" height="8.98157" fill="#DE6C6C"/>
<path d="M41.9194 18.5007H40.334V15.5374H31.6597V18.509H30.0659L30.0576 14.2341H31.0454C31.5656 13.6475 31.9779 12.8617 32.2822 11.8767C32.5921 10.8861 32.7858 9.80151 32.8633 8.6228L33.1289 3.45142H40.3589V14.2341H41.936L41.9194 18.5007ZM32.8633 14.2341H38.7568V4.76294H34.6646L34.4902 8.31567C34.4183 9.70467 34.2329 10.8889 33.9341 11.8684C33.6408 12.8479 33.2839 13.6365 32.8633 14.2341ZM49.3984 6.55591H50.9341V15.5374H49.3984V8.98804L45.2563 15.5374H43.7207V6.55591H45.2563V13.1135L49.3984 6.55591ZM58.9443 15.5374C58.8558 15.3603 58.7839 15.0448 58.7285 14.5911C58.0146 15.3326 57.1624 15.7034 56.1719 15.7034C55.2865 15.7034 54.5588 15.4543 53.9888 14.9563C53.4243 14.4527 53.1421 13.8163 53.1421 13.0471C53.1421 12.1119 53.4963 11.387 54.2046 10.8723C54.9185 10.3521 55.9201 10.092 57.2095 10.092H58.7036V9.38647C58.7036 8.84969 58.5431 8.42358 58.2222 8.10815C57.9012 7.78719 57.4281 7.62671 56.8027 7.62671C56.2549 7.62671 55.7956 7.76506 55.4248 8.04175C55.054 8.31844 54.8687 8.65324 54.8687 9.04614H53.3247C53.3247 8.5979 53.4824 8.16626 53.7979 7.75122C54.1188 7.33065 54.5505 6.99862 55.0928 6.75513C55.6406 6.51164 56.241 6.38989 56.894 6.38989C57.9289 6.38989 58.7396 6.64998 59.3262 7.17017C59.9128 7.68481 60.2171 8.39591 60.2393 9.30347V13.4373C60.2393 14.2618 60.3444 14.9176 60.5547 15.4045V15.5374H58.9443ZM56.396 14.3669C56.8774 14.3669 57.334 14.2424 57.7656 13.9934C58.1973 13.7444 58.5099 13.4207 58.7036 13.0222V11.1794H57.5C55.6185 11.1794 54.6777 11.7301 54.6777 12.8313C54.6777 13.3127 54.8382 13.689 55.1592 13.9602C55.4801 14.2314 55.8924 14.3669 56.396 14.3669ZM68.4487 7.82593H64.3066V15.5374H62.7627V6.55591H68.4487V7.82593ZM77.3721 11.1462C77.3721 12.5131 77.0594 13.6143 76.4341 14.45C75.8088 15.2856 74.9621 15.7034 73.894 15.7034C72.8039 15.7034 71.9461 15.3575 71.3208 14.6658V18.9905H69.7852V6.55591H71.188L71.2627 7.552C71.888 6.77726 72.7568 6.38989 73.8691 6.38989C74.9482 6.38989 75.8005 6.79663 76.4258 7.61011C77.0566 8.42358 77.3721 9.55526 77.3721 11.0051V11.1462ZM75.8364 10.9719C75.8364 9.95923 75.6206 9.15959 75.189 8.573C74.7573 7.98641 74.1652 7.69312 73.4126 7.69312C72.4829 7.69312 71.7856 8.10539 71.3208 8.92993V13.2214C71.7801 14.0404 72.4829 14.45 73.4292 14.45C74.1652 14.45 74.749 14.1594 75.1807 13.5784C75.6178 12.9918 75.8364 12.123 75.8364 10.9719ZM84.876 15.5374C84.7874 15.3603 84.7155 15.0448 84.6602 14.5911C83.9463 15.3326 83.0941 15.7034 82.1035 15.7034C81.2181 15.7034 80.4904 15.4543 79.9204 14.9563C79.356 14.4527 79.0737 13.8163 79.0737 13.0471C79.0737 12.1119 79.4279 11.387 80.1362 10.8723C80.8501 10.3521 81.8517 10.092 83.1411 10.092H84.6353V9.38647C84.6353 8.84969 84.4748 8.42358 84.1538 8.10815C83.8328 7.78719 83.3597 7.62671 82.7344 7.62671C82.1865 7.62671 81.7272 7.76506 81.3564 8.04175C80.9857 8.31844 80.8003 8.65324 80.8003 9.04614H79.2563C79.2563 8.5979 79.4141 8.16626 79.7295 7.75122C80.0505 7.33065 80.4821 6.99862 81.0244 6.75513C81.5723 6.51164 82.1727 6.38989 82.8257 6.38989C83.8605 6.38989 84.6712 6.64998 85.2578 7.17017C85.8444 7.68481 86.1488 8.39591 86.1709 9.30347V13.4373C86.1709 14.2618 86.276 14.9176 86.4863 15.4045V15.5374H84.876ZM82.3276 14.3669C82.8091 14.3669 83.2656 14.2424 83.6973 13.9934C84.1289 13.7444 84.4416 13.4207 84.6353 13.0222V11.1794H83.4316C81.5501 11.1794 80.6094 11.7301 80.6094 12.8313C80.6094 13.3127 80.7699 13.689 81.0908 13.9602C81.4118 14.2314 81.8241 14.3669 82.3276 14.3669ZM93.7495 13.5037L96.8042 6.55591H98.7217V15.5374H97.186V9.00464L94.2808 15.5374H93.2183L90.2549 8.86353V15.5374H88.7192V6.55591H90.7114L93.7495 13.5037ZM106.367 13.5037L109.421 6.55591H111.339V15.5374H109.803V9.00464L106.898 15.5374H105.835L102.872 8.86353V15.5374H101.336V6.55591H103.329L106.367 13.5037ZM119.357 15.5374C119.269 15.3603 119.197 15.0448 119.142 14.5911C118.428 15.3326 117.576 15.7034 116.585 15.7034C115.7 15.7034 114.972 15.4543 114.402 14.9563C113.837 14.4527 113.555 13.8163 113.555 13.0471C113.555 12.1119 113.909 11.387 114.618 10.8723C115.332 10.3521 116.333 10.092 117.623 10.092H119.117V9.38647C119.117 8.84969 118.956 8.42358 118.635 8.10815C118.314 7.78719 117.841 7.62671 117.216 7.62671C116.668 7.62671 116.209 7.76506 115.838 8.04175C115.467 8.31844 115.282 8.65324 115.282 9.04614H113.738C113.738 8.5979 113.896 8.16626 114.211 7.75122C114.532 7.33065 114.964 6.99862 115.506 6.75513C116.054 6.51164 116.654 6.38989 117.307 6.38989C118.342 6.38989 119.153 6.64998 119.739 7.17017C120.326 7.68481 120.63 8.39591 120.652 9.30347V13.4373C120.652 14.2618 120.757 14.9176 120.968 15.4045V15.5374H119.357ZM116.809 14.3669C117.291 14.3669 117.747 14.2424 118.179 13.9934C118.61 13.7444 118.923 13.4207 119.117 13.0222V11.1794H117.913C116.032 11.1794 115.091 11.7301 115.091 12.8313C115.091 13.3127 115.251 13.689 115.572 13.9602C115.893 14.2314 116.306 14.3669 116.809 14.3669ZM135.013 4.76294H129.186V15.5374H127.583V3.45142H135.013V4.76294ZM140.524 15.5374C140.436 15.3603 140.364 15.0448 140.309 14.5911C139.595 15.3326 138.743 15.7034 137.752 15.7034C136.867 15.7034 136.139 15.4543 135.569 14.9563C135.004 14.4527 134.722 13.8163 134.722 13.0471C134.722 12.1119 135.076 11.387 135.785 10.8723C136.499 10.3521 137.5 10.092 138.79 10.092H140.284V9.38647C140.284 8.84969 140.123 8.42358 139.802 8.10815C139.481 7.78719 139.008 7.62671 138.383 7.62671C137.835 7.62671 137.376 7.76506 137.005 8.04175C136.634 8.31844 136.449 8.65324 136.449 9.04614H134.905C134.905 8.5979 135.062 8.16626 135.378 7.75122C135.699 7.33065 136.131 6.99862 136.673 6.75513C137.221 6.51164 137.821 6.38989 138.474 6.38989C139.509 6.38989 140.32 6.64998 140.906 7.17017C141.493 7.68481 141.797 8.39591 141.819 9.30347V13.4373C141.819 14.2618 141.924 14.9176 142.135 15.4045V15.5374H140.524ZM137.976 14.3669C138.458 14.3669 138.914 14.2424 139.346 13.9934C139.777 13.7444 140.09 13.4207 140.284 13.0222V11.1794H139.08C137.199 11.1794 136.258 11.7301 136.258 12.8313C136.258 13.3127 136.418 13.689 136.739 13.9602C137.06 14.2314 137.472 14.3669 137.976 14.3669ZM151.564 15.5374H150.029V11.7024H145.903V15.5374H144.359V6.55591H145.903V10.449H150.029V6.55591H151.564V15.5374ZM160.712 7.80103H157.699V15.5374H156.163V7.80103H153.208V6.55591H160.712V7.80103ZM167.618 15.5374C167.53 15.3603 167.458 15.0448 167.402 14.5911C166.688 15.3326 165.836 15.7034 164.846 15.7034C163.96 15.7034 163.233 15.4543 162.663 14.9563C162.098 14.4527 161.816 13.8163 161.816 13.0471C161.816 12.1119 162.17 11.387 162.878 10.8723C163.592 10.3521 164.594 10.092 165.883 10.092H167.377V9.38647C167.377 8.84969 167.217 8.42358 166.896 8.10815C166.575 7.78719 166.102 7.62671 165.477 7.62671C164.929 7.62671 164.469 7.76506 164.099 8.04175C163.728 8.31844 163.542 8.65324 163.542 9.04614H161.999C161.999 8.5979 162.156 8.16626 162.472 7.75122C162.793 7.33065 163.224 6.99862 163.767 6.75513C164.314 6.51164 164.915 6.38989 165.568 6.38989C166.603 6.38989 167.413 6.64998 168 7.17017C168.587 7.68481 168.891 8.39591 168.913 9.30347V13.4373C168.913 14.2618 169.018 14.9176 169.229 15.4045V15.5374H167.618ZM165.07 14.3669C165.551 14.3669 166.008 14.2424 166.439 13.9934C166.871 13.7444 167.184 13.4207 167.377 13.0222V11.1794H166.174C164.292 11.1794 163.352 11.7301 163.352 12.8313C163.352 13.3127 163.512 13.689 163.833 13.9602C164.154 14.2314 164.566 14.3669 165.07 14.3669Z" fill="#383838"/>
<g clip-path="url(#clip0)">
<path fill-rule="evenodd" clip-rule="evenodd" d="M23.7163 6.98206C23.4016 5.12152 22.4379 3.5106 21.0807 2.36514C19.7225 1.21851 17.9714 0.537354 16.0838 0.537354V0.539528C15.7771 0.539528 15.5284 0.787842 15.5284 1.09414V8.23262C15.5258 8.27422 15.5279 8.31684 15.535 8.35975C15.5855 8.66242 15.8722 8.86696 16.1753 8.81651L23.2591 7.62148C23.5622 7.57088 23.7668 7.28459 23.7163 6.98206Z" fill="#383838"/>
<path d="M8.434 16.3781C8.07619 16.7354 8.10508 17.3257 8.4999 17.6417C9.97659 18.8235 11.8558 19.5373 13.8916 19.5373V19.5349H13.8976C15.8592 19.5349 17.8208 18.8699 19.4142 17.5398C19.7352 17.2716 19.7588 16.7869 19.4628 16.4913L14.3943 11.4298C14.1166 11.1526 13.6666 11.1526 13.3891 11.4298L8.434 16.3781Z" fill="#383838"/>
<path d="M22.465 10.0371C22.4306 9.70948 22.1547 9.46899 21.8374 9.46899C21.7992 9.46899 21.7606 9.47247 21.7215 9.47972L16.5488 10.4363C15.9861 10.5404 15.7709 11.232 16.1756 11.6361L20.1203 15.5754C20.446 15.9007 20.9883 15.8337 21.2303 15.4422C21.6919 14.6961 22.0423 13.874 22.2589 12.9995C22.2624 12.9853 22.2657 12.9712 22.2692 12.957C22.3107 12.7859 22.3473 12.6136 22.3781 12.4402C22.5174 11.6625 22.551 10.8552 22.465 10.0371Z" fill="#383838"/>
<path d="M13.1019 10.1406L13.6821 9.56118C13.8154 9.42811 13.8903 9.24763 13.8903 9.05933V2.9905C13.8903 2.64014 13.6052 2.3595 13.2606 2.3595C13.2442 2.3595 13.2276 2.36022 13.2109 2.36138C8.77172 2.7074 5.27734 6.41428 5.27734 10.9363C5.27734 12.5907 5.74519 14.1361 6.55589 15.4477C6.79598 15.8361 7.33829 15.8963 7.66156 15.5735L13.1019 10.1406Z" fill="#383838"/>
</g>
<defs>
<clipPath id="clip0">
<rect width="19.0261" height="19" fill="white" transform="translate(4.98047 0.537354)"/>
</clipPath>
</defs>
</svg>
