<svg width="20" height="20" viewBox="0 0 20 20" fill="none" xmlns="http://www.w3.org/2000/svg">
<g clip-path="url(#clip0)">
<path d="M19.787 3.03547C19.7757 3.02486 17.5439 0.896453 17.5439 0.896453C17.4586 0.81459 17.3704 0.72998 17.2056 0.72998H8.22067C7.95823 0.72998 7.7447 0.943471 7.7447 1.20591V2.66739L4.57797 3.21022C4.32414 3.25475 4.15344 3.49767 4.19742 3.75124L4.35814 4.68833C3.32883 5.03471 2.27207 5.39177 1.2519 5.75823C1.01083 5.84636 0.884327 6.1144 0.970346 6.35691L2.99967 11.9981C3.04049 12.1116 3.14748 12.1823 3.26159 12.1823C3.29284 12.1823 3.32468 12.177 3.35577 12.1658C3.50043 12.1138 3.5755 11.9544 3.52347 11.8097L1.52417 6.25193C2.4853 5.90781 3.48065 5.57101 4.4534 5.24359L5.40974 10.8191L6.51018 17.2402C6.54993 17.4669 6.74917 17.6281 6.97405 17.6281C6.99951 17.6281 7.02534 17.6261 7.05124 17.6218L10.0317 17.1103L12.3607 16.7111L8.85791 17.9701L6.09567 18.9633L3.95045 12.9965C3.89846 12.8518 3.73908 12.7768 3.59439 12.8287C3.44974 12.8807 3.37466 13.0402 3.42665 13.1848L5.6023 19.2364C5.67188 19.4267 5.85216 19.545 6.04272 19.545C6.09537 19.545 6.14885 19.5359 6.20095 19.5169L9.04616 18.4939L15.5067 16.1719L16.7409 15.9603H19.4674C19.7298 15.9603 19.9433 15.7463 19.9433 15.4833V3.34909C19.9434 3.1825 19.853 3.09752 19.787 3.03547ZM19.0496 3.10138H17.6569L17.6224 3.10153C17.5557 3.10197 17.3996 3.10313 17.36 3.06379C17.3508 3.0547 17.3401 3.02434 17.3401 2.96797L17.3369 1.4682L19.0496 3.10138ZM19.3867 15.4036H8.30134V9.97942C8.30134 9.82571 8.17673 9.7011 8.02302 9.7011C7.86931 9.7011 7.7447 9.82571 7.7447 9.97942V15.4832C7.7447 15.7462 7.95823 15.9602 8.22067 15.9602H13.4461L9.9376 16.5616L7.04374 17.0583L5.95837 10.725L4.76088 3.7436L7.74466 3.23212V8.68801C7.74466 8.84172 7.86928 8.96633 8.02298 8.96633C8.17669 8.96633 8.3013 8.84172 8.3013 8.68801V1.28658H16.7799L16.7835 2.9686C16.7835 3.17248 16.8455 3.3374 16.9678 3.45882C17.1557 3.64537 17.4213 3.65836 17.5861 3.65836C17.6003 3.65836 17.6138 3.65824 17.6263 3.65817L19.3867 3.65806V15.4036Z" fill="#383838"/>
<path d="M9.64258 5.05164C9.64258 5.20534 9.76719 5.32996 9.9209 5.32996H17.8785C18.0322 5.32996 18.1568 5.20534 18.1568 5.05164C18.1568 4.89793 18.0322 4.77332 17.8785 4.77332H9.9209C9.76719 4.77332 9.64258 4.89793 9.64258 5.05164Z" fill="#383838"/>
<path d="M17.8785 6.75061H9.9209C9.76719 6.75061 9.64258 6.87522 9.64258 7.02893C9.64258 7.18264 9.76719 7.30725 9.9209 7.30725H17.8785C18.0322 7.30725 18.1568 7.18264 18.1568 7.02893C18.1568 6.87522 18.0322 6.75061 17.8785 6.75061Z" fill="#383838"/>
<path d="M17.8785 8.72778H9.9209C9.76719 8.72778 9.64258 8.8524 9.64258 9.0061C9.64258 9.15981 9.76719 9.28442 9.9209 9.28442H17.8785C18.0322 9.28442 18.1568 9.15981 18.1568 9.0061C18.1568 8.8524 18.0322 8.72778 17.8785 8.72778Z" fill="#383838"/>
<path d="M17.8785 10.7051H9.9209C9.76719 10.7051 9.64258 10.8297 9.64258 10.9834C9.64258 11.1371 9.76719 11.2617 9.9209 11.2617H17.8785C18.0322 11.2617 18.1568 11.1371 18.1568 10.9834C18.1568 10.8297 18.0322 10.7051 17.8785 10.7051Z" fill="#383838"/>
<path d="M17.8785 12.6824H9.9209C9.76719 12.6824 9.64258 12.807 9.64258 12.9607C9.64258 13.1144 9.76719 13.239 9.9209 13.239H17.8785C18.0322 13.239 18.1568 13.1144 18.1568 12.9607C18.1568 12.807 18.0322 12.6824 17.8785 12.6824Z" fill="#383838"/>
</g>
<defs>
<clipPath id="clip0">
<rect width="19" height="19" fill="white" transform="translate(0.943359 0.637451)"/>
</clipPath>
</defs>
</svg>
