<svg width="14" height="15" viewBox="0 0 14 15" fill="none" xmlns="http://www.w3.org/2000/svg">
<path d="M7.4971 14.3253H1.02364C0.82601 14.3253 0.665198 14.1644 0.665198 13.9668V2.80428C0.665198 2.68531 0.568751 2.58887 0.449786 2.58887C0.330822 2.58887 0.234375 2.68531 0.234375 2.80428V13.9668C0.234375 14.402 0.588454 14.7561 1.02364 14.7561H7.4971C7.61609 14.7561 7.71251 14.6596 7.71251 14.5407C7.71251 14.4217 7.61609 14.3253 7.4971 14.3253Z" fill="#383838"/>
<path d="M2.10213 2.31974H4.8594C4.97836 2.31974 5.07481 2.22329 5.07481 2.10433C5.07481 1.98536 4.97836 1.88892 4.8594 1.88892H2.10213C1.98317 1.88892 1.88672 1.98536 1.88672 2.10433C1.88672 2.22329 1.98317 2.31974 2.10213 2.31974Z" fill="#383838"/>
<path d="M4.8594 12.8031C4.97836 12.8031 5.07481 12.7067 5.07481 12.5877C5.07481 12.4688 4.97836 12.3723 4.8594 12.3723H2.10213C1.98317 12.3723 1.88672 12.4688 1.88672 12.5877C1.88672 12.7067 1.98317 12.8031 2.10213 12.8031H4.8594Z" fill="#383838"/>
<path d="M13.7453 12.771L11.5316 10.5573C11.5313 10.557 11.531 10.5568 11.5307 10.5565L10.7764 9.80197C11.101 9.36382 11.3427 8.86814 11.4849 8.34108C11.6774 7.62786 11.6865 6.87145 11.5112 6.15353C11.483 6.03795 11.3665 5.96721 11.2509 5.99533C11.1353 6.02354 11.0645 6.14012 11.0927 6.25566C11.2508 6.90322 11.2426 7.58556 11.069 8.22883C10.8901 8.89164 10.5374 9.50016 10.049 9.9886C8.50925 11.5284 6.00378 11.5284 4.46396 9.9886C2.92417 8.44881 2.92417 5.94338 4.46396 4.40359C5.20986 3.65766 6.20162 3.24688 7.25647 3.24688C8.31133 3.24688 9.30308 3.65766 10.049 4.40359C10.3573 4.71191 10.6104 5.0647 10.8011 5.45215C10.8536 5.55888 10.9827 5.60291 11.0894 5.55029C11.1962 5.49776 11.2401 5.36863 11.1876 5.2619C11.0709 5.02483 10.9325 4.80003 10.7752 4.58826V0.840049C10.7752 0.40486 10.4211 0.0507812 9.98591 0.0507812H1.02364C0.588454 0.0507812 0.234375 0.40486 0.234375 0.840049V1.88531C0.234375 2.00428 0.330822 2.10072 0.449786 2.10072C0.568751 2.10072 0.665198 2.00428 0.665198 1.88531V0.840049C0.665198 0.642416 0.82601 0.481604 1.02364 0.481604H9.98591C10.1836 0.481604 10.3443 0.642416 10.3443 0.840049V4.08992C9.51812 3.26845 8.42211 2.81609 7.25647 2.81609C6.08653 2.81609 4.98661 3.2717 4.15934 4.09899C4.15119 4.10715 4.14332 4.11551 4.13525 4.12372H2.75747C2.63851 4.12372 2.54206 4.22017 2.54206 4.33913C2.54206 4.4581 2.63851 4.55455 2.75747 4.55455H3.7627C3.63167 4.72759 3.51521 4.90819 3.4133 5.09474H2.10127C1.98231 5.09474 1.88586 5.19119 1.88586 5.31015C1.88586 5.42912 1.98231 5.52556 2.10127 5.52556H3.20777C3.13513 5.70223 3.07447 5.88269 3.02591 6.06576H2.10127C1.98231 6.06576 1.88586 6.1622 1.88586 6.28117C1.88586 6.40013 1.98231 6.49658 2.10127 6.49658H2.93454C2.71922 7.83813 3.12729 9.26126 4.15934 10.2933C5.01323 11.1472 6.13487 11.5741 7.25647 11.5741C8.17415 11.5741 9.09178 11.2882 9.86283 10.7165L10.3443 11.1979V13.967C10.3443 14.1646 10.1835 14.3254 9.98591 14.3254H8.40553C8.28654 14.3254 8.19012 14.4219 8.19012 14.5408C8.19012 14.6598 8.28654 14.7563 8.40553 14.7563H9.98591C10.4211 14.7563 10.7752 14.4022 10.7752 13.967V11.6288L12.8313 13.6849C12.9534 13.807 13.1157 13.8742 13.2883 13.8742C13.4609 13.8742 13.6232 13.807 13.7452 13.6849H13.7453C13.8673 13.5629 13.9345 13.4006 13.9345 13.228C13.9345 13.0553 13.8673 12.893 13.7453 12.771ZM10.3536 10.2933C10.4045 10.2424 10.4537 10.1899 10.5019 10.1367L11.0746 10.7096L10.77 11.0142L10.1975 10.4419C10.2504 10.3938 10.3025 10.3444 10.3536 10.2933ZM13.4406 13.3803C13.3999 13.421 13.3458 13.4434 13.2883 13.4434C13.2308 13.4434 13.1767 13.421 13.136 13.3803L11.0746 11.3189L11.3792 11.0143L13.4406 13.0757C13.4813 13.1164 13.5037 13.1704 13.5037 13.228C13.5037 13.2855 13.4813 13.3396 13.4406 13.3803Z" fill="#383838"/>
<path d="M4.76921 4.7082C4.10566 5.37175 3.74023 6.25529 3.74023 7.19609C3.74023 8.13689 4.10569 9.02042 4.76921 9.68397C5.45511 10.3699 6.35608 10.7128 7.25707 10.7128C8.15804 10.7128 9.05903 10.3699 9.74496 9.68397C10.4085 9.02042 10.7739 8.13689 10.7739 7.19609C10.7739 6.25531 10.4085 5.37175 9.74496 4.7082C8.3731 3.33635 6.14104 3.33638 4.76921 4.7082ZM9.44031 9.3793C8.83833 9.98127 8.04786 10.2822 7.25707 10.2822C6.46651 10.2821 5.67569 9.98116 5.07383 9.3793C4.49165 8.79711 4.17103 8.02177 4.17103 7.19606C4.17103 6.37034 4.49165 5.59498 5.07383 5.01282C5.67575 4.4109 6.4664 4.10993 7.25707 4.10993C8.04774 4.10993 8.83839 4.4109 9.44031 5.01282C10.0225 5.59501 10.3431 6.37034 10.3431 7.19606C10.3431 8.02177 10.0225 8.79714 9.44031 9.3793Z" fill="#383838"/>
</svg>
