<svg width="41" height="41" viewBox="0 0 41 41" fill="none" xmlns="http://www.w3.org/2000/svg">
<g clip-path="url(#clip0)">
<path d="M31.7422 4.02942H27.9398V2.51392C27.9398 1.65088 27.2403 0.951416 26.3773 0.951416H14.0851C13.222 0.951416 12.5226 1.65088 12.5226 2.51392V4.02942H8.7207C6.56677 4.02942 4.81445 5.78174 4.81445 7.93567V37.0452C4.81445 39.1991 6.56677 40.9514 8.7207 40.9514H31.7422C33.8962 40.9514 35.6485 39.1991 35.6485 37.0452V7.93567C35.6485 5.78174 33.8959 4.02942 31.7422 4.02942ZM24.8148 4.07642V7.10773H15.6473C15.6473 6.06921 15.6473 5.21136 15.6473 4.07642H24.8148ZM32.5235 37.0452C32.5235 37.4761 32.1729 37.8264 31.7422 37.8264H8.7207C8.28979 37.8264 7.93945 37.4761 7.93945 37.0452V7.93567C7.93945 7.50507 8.28979 7.15442 8.7207 7.15442H12.5223V8.67023C12.5223 9.53326 13.222 10.2327 14.0848 10.2327H26.3773C27.24 10.2327 27.9398 9.53326 27.9398 8.67023V7.15442H31.7422C32.1729 7.15442 32.5235 7.50507 32.5235 7.93567V37.0452ZM27.4817 19.1951C28.092 19.8055 28.092 20.7949 27.4817 21.4049L19.2706 29.616C18.6606 30.2263 17.6712 30.2263 17.0609 29.616L12.9803 25.5355C12.3703 24.9254 12.3703 23.936 12.9803 23.3257C13.5907 22.7156 14.5798 22.7156 15.1901 23.3257L18.1659 26.3015L25.2719 19.1954C25.8823 18.5851 26.8713 18.5851 27.4817 19.1951Z" fill="#245B9C"/>
</g>
<defs>
<clipPath id="clip0">
<rect width="40" height="40" fill="white" transform="translate(0.205078 0.951416)"/>
</clipPath>
</defs>
</svg>
