<svg width="24" height="23" viewBox="0 0 24 23" fill="none" xmlns="http://www.w3.org/2000/svg">
<path d="M19.7982 1.54985H4.16464C2.53008 1.54985 1.2002 2.87948 1.2002 4.5143V14.0817C1.2002 15.7129 2.52429 17.0404 4.15411 17.0462V21.3878L10.3935 17.0462H19.7982C21.4328 17.0462 22.7627 15.7163 22.7627 14.0817V4.5143C22.7627 2.87948 21.4328 1.54985 19.7982 1.54985ZM21.4993 14.0817C21.4993 15.0196 20.7362 15.7827 19.7982 15.7827H9.99707L5.41754 18.9695V15.7827H4.16464C3.22668 15.7827 2.46362 15.0196 2.46362 14.0817V4.5143C2.46362 3.5762 3.22668 2.81328 4.16464 2.81328H19.7982C20.7362 2.81328 21.4993 3.5762 21.4993 4.5143V14.0817Z" fill="#245B9C"/>
<path d="M6.9707 6.0141H16.991V7.27753H6.9707V6.0141Z" fill="#245B9C"/>
<path d="M6.9707 8.70941H16.991V9.97284H6.9707V8.70941Z" fill="#245B9C"/>
<path d="M6.9707 11.4047H16.991V12.6682H6.9707V11.4047Z" fill="#245B9C"/>
</svg>
