<svg width="23" height="23" viewBox="0 0 23 23" fill="none" xmlns="http://www.w3.org/2000/svg">
<path d="M10.7381 17.2936C10.8382 17.3937 10.957 17.4731 11.0878 17.5273C11.2186 17.5815 11.3588 17.6094 11.5004 17.6094C11.642 17.6094 11.7822 17.5815 11.913 17.5273C12.0438 17.4731 12.1627 17.3937 12.2628 17.2936L16.3286 13.2277C16.5308 13.0256 16.6444 12.7513 16.6444 12.4654C16.6444 12.1795 16.5308 11.9052 16.3286 11.703C16.1264 11.5009 15.8522 11.3873 15.5663 11.3873C15.2803 11.3873 15.0061 11.5009 14.8039 11.703L12.5785 13.9284V2.15625C12.5785 1.87031 12.465 1.59609 12.2628 1.3939C12.0606 1.19171 11.7864 1.07813 11.5004 1.07812C11.2145 1.07813 10.9403 1.19171 10.7381 1.3939C10.5359 1.59609 10.4223 1.87031 10.4223 2.15625V13.9284L8.19691 11.703C7.99472 11.5009 7.7205 11.3873 7.43456 11.3873C7.14863 11.3873 6.87441 11.5009 6.67222 11.703C6.47003 11.9052 6.35645 12.1795 6.35645 12.4654C6.35645 12.7513 6.47003 13.0256 6.67222 13.2277L10.7381 17.2936Z" fill="#245B9C"/>
<path d="M20.8438 10.4219C20.5578 10.4219 20.2836 10.5355 20.0814 10.7377C19.8792 10.9398 19.7656 11.2141 19.7656 11.5V19.7656H3.23438V11.5C3.23438 11.2141 3.12079 10.9398 2.9186 10.7377C2.71641 10.5355 2.44219 10.4219 2.15625 10.4219C1.87031 10.4219 1.59609 10.5355 1.3939 10.7377C1.19171 10.9398 1.07813 11.2141 1.07812 11.5V20.125C1.07812 20.6016 1.26744 21.0586 1.60442 21.3956C1.9414 21.7326 2.39844 21.9219 2.875 21.9219H20.125C20.6016 21.9219 21.0586 21.7326 21.3956 21.3956C21.7326 21.0586 21.9219 20.6016 21.9219 20.125V11.5C21.9219 11.2141 21.8083 10.9398 21.6061 10.7377C21.4039 10.5355 21.1297 10.4219 20.8438 10.4219Z" fill="#245B9C"/>
</svg>
