<svg width="23" height="23" viewBox="0 0 23 23" fill="none" xmlns="http://www.w3.org/2000/svg">
<path d="M11.9865 19.1933L9.6109 19.8036C9.44195 19.847 9.26785 19.8689 9.09345 19.8689C8.5379 19.8689 8.01555 19.6526 7.6227 19.2598C7.1052 18.7423 6.89685 17.9804 7.0789 17.2716L7.1329 17.0614H5.12055C4.4302 17.0614 3.87055 16.5018 3.87055 15.8114C3.87055 15.121 4.4302 14.5614 5.12055 14.5614H7.7933C7.9675 14.087 8.24335 13.6542 8.60245 13.2951L9.5361 12.3614H5.12055C4.4302 12.3614 3.87055 11.8018 3.87055 11.1114C3.87055 10.4211 4.4302 9.8614 5.12055 9.8614H12.0361L14.2379 7.6596C14.2157 7.66075 14.1934 7.6614 14.171 7.6614H5.1206C4.43025 7.6614 3.8706 7.10175 3.8706 6.4114C3.8706 5.72105 4.43025 5.1614 5.1206 5.1614H14.171C14.8614 5.1614 15.421 5.72105 15.421 6.4114C15.421 6.43385 15.4203 6.4562 15.4192 6.47835L18.4519 3.44565C18.6947 3.2028 18.967 3.00025 19.2604 2.8403V1.4173C19.2604 0.63455 18.6258 0 17.843 0H1.44855C0.6658 0 0.03125 0.63455 0.03125 1.4173V21.5827C0.03125 22.3655 0.6658 23 1.44855 23H17.843C18.6258 23 19.2603 22.3654 19.2603 21.5827V12.6071L13.5874 18.28C13.1455 18.722 12.5919 19.0378 11.9865 19.1933Z" fill="#245B9C"/>
<path d="M9.66326 14.3558C9.41091 14.6081 9.23096 14.9236 9.14216 15.2692L8.53191 17.6448C8.48091 17.8434 8.53856 18.0542 8.68351 18.1992C8.79366 18.3093 8.94171 18.369 9.09361 18.369C9.14166 18.369 9.19011 18.363 9.23786 18.3508L11.6135 17.7405C11.9591 17.6517 12.2746 17.4718 12.5269 17.2194L20.5933 9.15305L17.7296 6.2894L9.66326 14.3558Z" fill="#245B9C"/>
<path d="M22.3756 4.50635C21.9802 4.11095 21.462 3.91325 20.9438 3.91325C20.4256 3.91325 19.9073 4.11095 19.512 4.50635L18.7891 5.22925L21.649 8.09655L22.3756 7.36995C23.1663 6.5792 23.1663 5.2971 22.3756 4.50635Z" fill="#245B9C"/>
</svg>
