<svg width="23" height="23" viewBox="0 0 23 21" fill="none" xmlns="http://www.w3.org/2000/svg">
<path d="M20.1661 4.31241H12.8865C12.591 4.31241 12.3024 4.19108 12.1031 3.98484L9.83172 1.59213C9.28574 1.0479 8.53873 0.763636 7.78216 0.767994H2.83385C1.27133 0.767949 0 2.03928 0 3.60175V17.3983C0 18.9608 1.27133 20.2321 2.83385 20.2321H20.1765H20.1791C21.7408 20.2252 23.0069 18.9478 23 17.3896V7.14621C23 5.5837 21.7286 4.31241 20.1661 4.31241ZM21.2667 17.3931C21.2693 17.9997 20.778 18.4963 20.1748 18.4989H2.83385C2.22722 18.4989 1.73326 18.0049 1.73326 17.3983V3.60175C1.73326 2.99513 2.22722 2.50117 2.83385 2.50027H7.80471C7.81424 2.50027 7.82376 2.50027 7.83333 2.50027C8.12276 2.50027 8.40356 2.61554 8.59246 2.80273L10.8517 5.18416C11.3821 5.73185 12.1239 6.04559 12.8865 6.04559H20.1661C20.7727 6.04559 21.2667 6.53955 21.2667 7.14617V17.3931H21.2667Z" fill="#245B9C"/>
</svg>
