<svg width="23" height="23" viewBox="0 0 23 23" fill="none" xmlns="http://www.w3.org/2000/svg">
<path d="M20.6233 12.93C20.6232 12.9089 20.6221 12.888 20.62 12.8671C20.6195 12.8628 20.6188 12.8586 20.6183 12.8543C20.6163 12.8374 20.6135 12.8206 20.6102 12.8039C20.6091 12.7983 20.608 12.7927 20.6068 12.7872C20.6022 12.767 20.5969 12.7469 20.5905 12.7273C20.5902 12.7263 20.5898 12.7255 20.5894 12.7245C20.5831 12.7057 20.5758 12.6872 20.5679 12.669C20.5657 12.6639 20.5633 12.6589 20.5609 12.6538C20.5536 12.6381 20.5457 12.6226 20.5371 12.6075C20.5352 12.6042 20.5336 12.6008 20.5316 12.5976C20.5211 12.5797 20.5096 12.5622 20.4973 12.5452C20.4946 12.5414 20.4917 12.5379 20.4889 12.5342C20.4788 12.5209 20.4681 12.5078 20.4569 12.4952C20.4531 12.4909 20.4494 12.4866 20.4454 12.4824C20.4311 12.4669 20.4162 12.4519 20.4002 12.4377L15.0151 7.66313V0.663451C15.0151 0.297068 14.718 0 14.3517 0H3.03943C2.673 0 2.37598 0.297068 2.37598 0.663451V16.8077C2.37598 17.1741 2.67304 17.4712 3.03943 17.4712H8.04665V22.3365C8.04665 22.703 8.34371 23 8.7101 23H19.9601C20.3265 23 20.6236 22.7029 20.6236 22.3365V12.9341C20.6236 12.9327 20.6233 12.9313 20.6233 12.93ZM15.0152 9.43647L18.2117 12.2707H15.0152V9.43647ZM6.61126 1.3269H10.7798V1.99035H9.69074C9.32431 1.99035 9.02729 2.28742 9.02729 2.6538C9.02729 2.83673 8.87851 2.98555 8.69554 2.98555C8.51266 2.98555 8.36379 2.83677 8.36379 2.6538C8.36379 2.28738 8.06673 1.99035 7.70034 1.99035H6.61126V1.3269ZM8.7101 7.2981C8.34367 7.2981 8.04665 7.59517 8.04665 7.96155V16.1442H3.70288V1.3269H5.28431V2.6538C5.28431 3.02023 5.58138 3.31726 5.94776 3.31726H7.17534C7.43175 3.90263 8.01668 4.3125 8.69554 4.3125C9.3744 4.3125 9.95924 3.90263 10.2157 3.3173H11.4433C11.8097 3.3173 12.1067 3.02023 12.1067 2.65385V1.3269H13.6882V7.29805H8.7101V7.2981ZM19.2967 21.6731H9.37355V8.625H13.6882V12.9341C13.6882 13.3006 13.9852 13.5976 14.3516 13.5976H19.2966V21.6731H19.2967Z" fill="#245B9C"/>
</svg>
