<svg width="23" height="23" viewBox="0 0 23 23" fill="none" xmlns="http://www.w3.org/2000/svg">
<g clip-path="url(#clip0)">
<path d="M18.2083 11.5442C17.6783 11.5442 17.25 11.9736 17.25 12.5025V20.1692C17.25 20.6972 16.8206 21.1275 16.2917 21.1275H2.875C2.34594 21.1275 1.91673 20.6972 1.91673 20.1692V6.7525C1.91673 6.2245 2.34594 5.79423 2.875 5.79423H10.5417C11.0717 5.79423 11.5 5.36484 11.5 4.83595C11.5 4.30689 11.0717 3.8775 10.5417 3.8775H2.875C1.28992 3.8775 0 5.16743 0 6.7525V20.1692C0 21.7543 1.28992 23.0442 2.875 23.0442H16.2917C17.8768 23.0442 19.1667 21.7543 19.1667 20.1692V12.5025C19.1667 11.9726 18.7382 11.5442 18.2083 11.5442Z" fill="#245B9C"/>
<path d="M8.98509 10.6712C8.91806 10.7383 8.87296 10.8235 8.85383 10.9155L8.17632 14.3043C8.14473 14.4613 8.19457 14.6233 8.30758 14.7374C8.39865 14.8284 8.52131 14.8772 8.64695 14.8772C8.67748 14.8772 8.70924 14.8744 8.74083 14.8677L12.1286 14.1902C12.2224 14.1709 12.3077 14.126 12.3739 14.0588L19.9562 6.47646L16.5685 3.0889L8.98509 10.6712Z" fill="#245B9C"/>
<path d="M22.2989 0.74576C21.3647 -0.18865 19.8447 -0.18865 18.9112 0.74576L17.585 2.07201L20.9727 5.45975L22.2989 4.13333C22.7513 3.682 23.0005 3.08012 23.0005 2.43998C23.0005 1.79984 22.7513 1.19796 22.2989 0.74576Z" fill="#245B9C"/>
</g>
<defs>
<clipPath id="clip0">
<rect width="23" height="23" fill="white"/>
</clipPath>
</defs>
</svg>
