<svg width="23" height="23" viewBox="0 0 23 23" fill="none" xmlns="http://www.w3.org/2000/svg">
<path d="M21.8104 10.3094H21.8093C21.653 10.3095 21.4983 10.3404 21.3541 10.4003C21.2098 10.4602 21.0787 10.548 20.9683 10.6585C20.8579 10.7691 20.7704 10.9003 20.7107 11.0447C20.6511 11.189 20.6204 11.3438 20.6206 11.5C20.6191 13.1677 20.1604 14.8031 19.2944 16.2284C18.4285 17.6537 17.1883 18.8144 15.7088 19.5843C14.2293 20.3543 12.567 20.704 10.9026 20.5954C9.23827 20.4869 7.63549 19.9243 6.26851 18.9687C2.14919 16.0847 1.14445 10.3874 4.02886 6.26851C6.91328 2.14966 12.6114 1.14494 16.7307 4.02909C17.3539 4.46426 17.9203 4.9756 18.4167 5.55121H15.0687C14.7532 5.55121 14.4506 5.67654 14.2275 5.89962C14.0043 6.1227 13.879 6.42527 13.879 6.74075C13.879 7.05624 14.0043 7.35881 14.2275 7.58189C14.4506 7.80497 14.7532 7.9303 15.0687 7.9303H20.6206C20.9361 7.9303 21.2387 7.80497 21.4619 7.58189C21.685 7.35881 21.8103 7.05624 21.8103 6.74075V1.18954C21.8103 0.874058 21.685 0.571493 21.4619 0.34841C21.2387 0.125327 20.9361 0 20.6206 0C20.3051 0 20.0025 0.125327 19.7794 0.34841C19.5563 0.571493 19.4309 0.874058 19.4309 1.18954V3.17048C19.0134 2.77442 18.567 2.40994 18.0955 2.08007C16.8584 1.214 15.4629 0.600033 13.9885 0.273226C12.5142 -0.0535816 10.9899 -0.0868307 9.5027 0.175377C8.0155 0.437585 6.59451 0.990114 5.32087 1.80142C4.04722 2.61272 2.94587 3.66691 2.07969 4.9038C0.330367 7.40181 -0.354857 10.4923 0.174762 13.4955C0.704382 16.4987 2.40546 19.1684 4.90378 20.9176C6.82729 22.2722 9.12245 22.9996 11.4752 23C12.1529 22.9997 12.8292 22.9402 13.4965 22.8223C16.1592 22.3527 18.5712 20.9601 20.3091 18.8892C22.0471 16.8182 22.9998 14.2013 23 11.4979C22.9997 11.1826 22.8743 10.8803 22.6512 10.6574C22.4281 10.4346 22.1257 10.3094 21.8104 10.3094Z" fill="#245B9C"/>
</svg>
