<svg width="24" height="23" viewBox="0 0 24 23" fill="none" xmlns="http://www.w3.org/2000/svg">
<path d="M9.18825 6.98443L11.4136 4.75905V16.5312C11.4136 16.8172 11.5272 17.0914 11.7294 17.2936C11.9316 17.4958 12.2058 17.6094 12.4918 17.6094C12.7777 17.6094 13.0519 17.4958 13.2541 17.2936C13.4563 17.0914 13.5699 16.8172 13.5699 16.5312V4.75905L15.7953 6.98443C15.8953 7.08499 16.0141 7.16483 16.1451 7.21937C16.276 7.27391 16.4164 7.30209 16.5582 7.30228C16.7 7.30247 16.8405 7.27468 16.9716 7.2205C17.1027 7.16631 17.2217 7.08679 17.322 6.98651C17.4223 6.88622 17.5018 6.76713 17.556 6.63606C17.6102 6.50499 17.638 6.36452 17.6378 6.22269C17.6376 6.08086 17.6094 5.94047 17.5549 5.80955C17.5004 5.67863 17.4205 5.55975 17.32 5.45974L13.2541 1.39386C13.154 1.29374 13.0352 1.21432 12.9043 1.16014C12.7735 1.10595 12.6333 1.07806 12.4918 1.07806C12.3502 1.07806 12.21 1.10595 12.0792 1.16014C11.9484 1.21432 11.8295 1.29374 11.7294 1.39386L7.66355 5.45974C7.56299 5.55975 7.48316 5.67863 7.42861 5.80955C7.37407 5.94047 7.3459 6.08086 7.3457 6.22269C7.34551 6.36452 7.3733 6.50499 7.42749 6.63606C7.48168 6.76713 7.56119 6.88622 7.66148 6.98651C7.76177 7.08679 7.88086 7.16631 8.01192 7.2205C8.14299 7.27468 8.28347 7.30247 8.42529 7.30228C8.56712 7.30209 8.70752 7.27391 8.83844 7.21937C8.96936 7.16483 9.08823 7.08499 9.18825 6.98443Z" fill="#245B9C"/>
<path d="M21.8359 10.4219C21.55 10.4219 21.2758 10.5355 21.0736 10.7377C20.8714 10.9398 20.7578 11.2141 20.7578 11.5V19.7656H4.22656V11.5C4.22656 11.2141 4.11297 10.9398 3.91079 10.7377C3.7086 10.5355 3.43437 10.4219 3.14844 10.4219C2.8625 10.4219 2.58828 10.5355 2.38609 10.7377C2.1839 10.9398 2.07031 11.2141 2.07031 11.5V20.125C2.07031 20.6016 2.25963 21.0586 2.59661 21.3956C2.93358 21.7326 3.39063 21.9219 3.86719 21.9219H21.1172C21.5937 21.9219 22.0508 21.7326 22.3878 21.3956C22.7247 21.0586 22.9141 20.6016 22.9141 20.125V11.5C22.9141 11.2141 22.8005 10.9398 22.5983 10.7377C22.3961 10.5355 22.1219 10.4219 21.8359 10.4219Z" fill="#245B9C"/>
</svg>
