<svg width="17" height="17" viewBox="0 0 17 17" fill="none" xmlns="http://www.w3.org/2000/svg">
<g clip-path="url(#clip0)">
<path d="M16.4659 6.29601C15.8362 5.76762 14.894 5.85029 14.3665 6.47883L12.9489 8.15635V3.29196C12.9489 2.88426 12.7794 2.48944 12.4838 2.20871L10.592 0.411588C10.3131 0.14666 9.94766 0.000732422 9.563 0.000732422H1.49411C0.670271 0.000732422 0 0.671004 0 1.49484V15.5063C0 16.3301 0.670271 17.0004 1.49411 17.0004H11.4548C12.2787 17.0004 12.949 16.3301 12.949 15.5063V12.7849C13.0101 12.7124 16.6386 8.41447 16.65 8.40095C17.1809 7.76837 17.0986 6.82686 16.4659 6.29601ZM9.96074 1.18575C11.9534 3.07859 11.8118 2.94024 11.8492 2.98898H9.96074V1.18575ZM11.9529 15.5063C11.9529 15.7809 11.7294 16.0043 11.4548 16.0043H1.49411C1.21948 16.0043 0.996061 15.7809 0.996061 15.5063V1.49484C0.996061 1.22022 1.21948 0.996793 1.49411 0.996793H8.96464V3.48696C8.96464 3.76201 9.18764 3.98501 9.46269 3.98501H11.9529V9.33499C11.7389 9.58813 10.0212 11.6208 9.8355 11.8405C9.68718 12.0173 9.58043 12.2293 9.52684 12.4538L9.06399 14.3914C9.02019 14.5748 9.08378 14.7674 9.22828 14.8886C9.37291 15.01 9.57356 15.039 9.74648 14.964L11.5743 14.1718C11.7115 14.1123 11.8395 14.0314 11.9529 13.9343V15.5063V15.5063ZM10.7683 12.28L11.5312 12.9201L11.3615 13.1211C11.3122 13.18 11.2487 13.2273 11.1782 13.2579L10.2643 13.654L10.4957 12.6852C10.5136 12.6104 10.5492 12.5397 10.5975 12.4821L10.7683 12.28ZM12.1737 12.159L11.4112 11.5192C11.4885 11.4276 13.991 8.46636 14.164 8.2616L14.925 8.90013L12.1737 12.159ZM15.888 7.75954L15.5676 8.13905L14.807 7.50082L15.1285 7.12041C15.3041 6.91113 15.6169 6.88384 15.8256 7.05902C16.0385 7.23762 16.062 7.55215 15.888 7.75954Z" fill="#383838"/>
<path d="M7.4706 2.9884H2.49023C2.21518 2.9884 1.99219 3.2114 1.99219 3.48645C1.99219 3.7615 2.21518 3.9845 2.49023 3.9845H7.4706C7.74566 3.9845 7.96865 3.7615 7.96865 3.48645C7.96865 3.2114 7.74566 2.9884 7.4706 2.9884Z" fill="#383838"/>
<path d="M10.4588 6.00983H2.49023C2.21518 6.00983 1.99219 6.23282 1.99219 6.50787C1.99219 6.78293 2.21518 7.00592 2.49023 7.00592H10.4588C10.7339 7.00592 10.9569 6.78293 10.9569 6.50787C10.9569 6.23282 10.7339 6.00983 10.4588 6.00983Z" fill="#383838"/>
<path d="M10.4588 8.99805H2.49023C2.21518 8.99805 1.99219 9.22104 1.99219 9.49609C1.99219 9.77115 2.21518 9.99414 2.49023 9.99414H10.4588C10.7339 9.99414 10.9569 9.77115 10.9569 9.49609C10.9569 9.22101 10.7339 8.99805 10.4588 8.99805Z" fill="#383838"/>
<path d="M7.4706 11.9863H2.49023C2.21518 11.9863 1.99219 12.2093 1.99219 12.4843C1.99219 12.7594 2.21518 12.9824 2.49023 12.9824H7.4706C7.74566 12.9824 7.96865 12.7594 7.96865 12.4843C7.96865 12.2093 7.74566 11.9863 7.4706 11.9863Z" fill="#383838"/>
</g>
<defs>
<clipPath id="clip0">
<rect width="17" height="17" fill="white"/>
</clipPath>
</defs>
</svg>
