<svg width="17" height="17" viewBox="0 0 17 17" fill="none" xmlns="http://www.w3.org/2000/svg">
<path d="M3.06152 4.98047L3.94366 15.6299C4.00692 16.3979 4.66108 17 5.43199 17H11.5681C12.339 17 12.9932 16.3979 13.0564 15.6299L13.9385 4.98047H3.06152ZM7.00589 14.5098C7.00589 14.7851 6.78313 15.0078 6.50784 15.0078C6.23255 15.0078 6.0098 14.7851 6.0098 14.5098V6.47461C6.0098 6.19932 6.23255 5.97656 6.50784 5.97656C6.78313 5.97656 7.00589 6.19932 7.00589 6.47461V14.5098ZM8.99808 14.5098C8.99808 14.7851 8.77532 15.0078 8.50003 15.0078C8.22474 15.0078 8.00198 14.7851 8.00198 14.5098V6.47461C8.00198 6.19932 8.22474 5.97656 8.50003 5.97656C8.77532 5.97656 8.99808 6.19932 8.99808 6.47461V14.5098ZM10.9903 14.5098C10.9903 14.7851 10.7675 15.0078 10.4922 15.0078C10.2169 15.0078 9.99417 14.7851 9.99417 14.5098V6.47461C9.99417 6.19932 10.2169 5.97656 10.4922 5.97656C10.7675 5.97656 10.9903 6.19932 10.9903 6.47461V14.5098Z" fill="#E9E9E9"/>
<path d="M13.4805 1.99219H10.9902V1.49414C10.9902 0.670238 10.32 0 9.49609 0H7.50391C6.68 0 6.00977 0.670238 6.00977 1.49414V1.99219H3.51953C2.69433 1.99219 2.02539 2.66113 2.02539 3.48633C2.02539 3.76138 2.24838 3.98438 2.52344 3.98438H14.4766C14.7516 3.98438 14.9746 3.76138 14.9746 3.48633C14.9746 2.66113 14.3057 1.99219 13.4805 1.99219ZM9.99414 1.99219H7.00586V1.49414C7.00586 1.21935 7.22912 0.996094 7.50391 0.996094H9.49609C9.77088 0.996094 9.99414 1.21935 9.99414 1.49414V1.99219Z" fill="#E9E9E9"/>
</svg>
