<svg width="1920" height="1080" viewBox="0 0 1920 1080" fill="none" xmlns="http://www.w3.org/2000/svg">
<g clip-path="url(#clip0)">
<rect width="1920" height="1080" fill="url(#paint0_radial)"/>
<path d="M1570 284C1570 366.29 1503.29 433 1421 433C1338.71 433 1272 366.29 1272 284C1272 201.71 1338.71 135 1421 135C1503.29 135 1570 201.71 1570 284ZM1278.4 284C1278.4 362.754 1342.25 426.597 1421 426.597C1499.75 426.597 1563.6 362.754 1563.6 284C1563.6 205.246 1499.75 141.403 1421 141.403C1342.25 141.403 1278.4 205.246 1278.4 284Z" fill="#E6E2E2" fill-opacity="0.08"/>
<path d="M948 148C948 258.457 858.457 348 748 348C637.543 348 548 258.457 548 148C548 37.5431 637.543 -52 748 -52C858.457 -52 948 37.5431 948 148ZM556.595 148C556.595 253.71 642.29 339.405 748 339.405C853.71 339.405 939.405 253.71 939.405 148C939.405 42.2901 853.71 -43.4048 748 -43.4048C642.29 -43.4048 556.595 42.2901 556.595 148Z" fill="#E6E2E2" fill-opacity="0.08"/>
<path d="M1170 638C1170 706.483 1114.48 762 1046 762C977.517 762 922 706.483 922 638C922 569.517 977.517 514 1046 514C1114.48 514 1170 569.517 1170 638ZM927.329 638C927.329 703.54 980.46 756.671 1046 756.671C1111.54 756.671 1164.67 703.54 1164.67 638C1164.67 572.46 1111.54 519.329 1046 519.329C980.46 519.329 927.329 572.46 927.329 638Z" fill="#E6E2E2" fill-opacity="0.08"/>
<path d="M177 259.5C177 349.246 104.246 422 14.5 422C-75.2463 422 -148 349.246 -148 259.5C-148 169.754 -75.2463 97 14.5 97C104.246 97 177 169.754 177 259.5ZM-141.016 259.5C-141.016 345.389 -71.3893 415.016 14.5 415.016C100.389 415.016 170.016 345.389 170.016 259.5C170.016 173.611 100.389 103.984 14.5 103.984C-71.3893 103.984 -141.016 173.611 -141.016 259.5Z" fill="#E6E2E2" fill-opacity="0.08"/>
<path d="M451.779 383.411L394.053 458.861L319 401.439L398.905 297L444.969 332.243M451.779 383.411L444.969 332.243M451.779 383.411L422.79 361.232L444.969 332.243" stroke="#E5E2E2" stroke-opacity="0.08" stroke-width="8"/>
<path d="M239.182 771.004L317.48 807.755L280.922 885.64L172.542 834.769L194.979 786.966M239.182 771.004L194.979 786.966M239.182 771.004L225.062 801.086L194.979 786.966" stroke="#E5E2E2" stroke-opacity="0.08" stroke-width="7"/>
<path d="M1432.61 1115.43L1366 1060.26L1420.88 994L1513.09 1070.37L1479.4 1111.04M1432.61 1115.43L1479.4 1111.04M1432.61 1115.43L1453.81 1089.84L1479.4 1111.04" stroke="#E5E2E2" stroke-opacity="0.08" stroke-width="7"/>
<path d="M1920.27 198.018L1973.09 266.509L1904.96 319.053L1831.85 224.247L1873.66 191.998M1920.27 198.018L1873.66 191.998M1920.27 198.018L1893.96 218.313L1873.66 191.998" stroke="#E5E2E2" stroke-opacity="0.08" stroke-width="7"/>
<path d="M801.467 641.885L813.244 705.471L749.993 717.186L733.692 629.17L772.512 621.98M801.467 641.885L772.512 621.98M801.467 641.885L777.037 646.41L772.512 621.98" stroke="#E5E2E2" stroke-opacity="0.08" stroke-width="6"/>
<path d="M1565.85 709.461L1487.62 714.634L1482.76 641.06L1591.05 633.899L1594.03 679.055M1565.85 709.461L1594.03 679.055M1565.85 709.461L1563.97 681.043L1594.03 679.055" stroke="#E5E2E2" stroke-opacity="0.08" stroke-width="6"/>
<path d="M2016 -66.5C2016 -13.2045 1972.8 30 1919.5 30C1866.2 30 1823 -13.2045 1823 -66.5C1823 -119.795 1866.2 -163 1919.5 -163C1972.8 -163 2016 -119.795 2016 -66.5ZM1827.15 -66.5C1827.15 -15.495 1868.49 25.8528 1919.5 25.8528C1970.51 25.8528 2011.85 -15.495 2011.85 -66.5C2011.85 -117.505 1970.51 -158.853 1919.5 -158.853C1868.49 -158.853 1827.15 -117.505 1827.15 -66.5Z" fill="#E6E2E2" fill-opacity="0.08"/>
<path d="M2214 933C2214 1068.86 2103.86 1179 1968 1179C1832.14 1179 1722 1068.86 1722 933C1722 797.138 1832.14 687 1968 687C2103.86 687 2214 797.138 2214 933ZM1732.57 933C1732.57 1063.02 1837.98 1168.43 1968 1168.43C2098.02 1168.43 2203.43 1063.02 2203.43 933C2203.43 802.977 2098.02 697.572 1968 697.572C1837.98 697.572 1732.57 802.977 1732.57 933Z" fill="#E6E2E2" fill-opacity="0.08"/>
<path d="M578 807C578 861.676 533.676 906 479 906C424.324 906 380 861.676 380 807C380 752.324 424.324 708 479 708C533.676 708 578 752.324 578 807ZM384.255 807C384.255 859.326 426.674 901.745 479 901.745C531.326 901.745 573.745 859.326 573.745 807C573.745 754.674 531.326 712.255 479 712.255C426.674 712.255 384.255 754.674 384.255 807Z" fill="#E6E2E2" fill-opacity="0.08"/>
<path d="M41 1065C41 1119.68 -3.32381 1164 -58 1164C-112.676 1164 -157 1119.68 -157 1065C-157 1010.32 -112.676 966 -58 966C-3.32381 966 41 1010.32 41 1065ZM-152.745 1065C-152.745 1117.33 -110.326 1159.75 -58 1159.75C-5.67358 1159.75 36.7454 1117.33 36.7454 1065C36.7454 1012.67 -5.67358 970.255 -58 970.255C-110.326 970.255 -152.745 1012.67 -152.745 1065Z" fill="#E6E2E2" fill-opacity="0.08"/>
<path d="M1190 1133.5C1190 1203.36 1133.36 1260 1063.5 1260C993.636 1260 937 1203.36 937 1133.5C937 1063.64 993.636 1007 1063.5 1007C1133.36 1007 1190 1063.64 1190 1133.5ZM942.436 1133.5C942.436 1200.36 996.638 1254.56 1063.5 1254.56C1130.36 1254.56 1184.56 1200.36 1184.56 1133.5C1184.56 1066.64 1130.36 1012.44 1063.5 1012.44C996.638 1012.44 942.436 1066.64 942.436 1133.5Z" fill="#E6E2E2" fill-opacity="0.08"/>
</g>
<defs>
<radialGradient id="paint0_radial" cx="0" cy="0" r="1" gradientUnits="userSpaceOnUse" gradientTransform="translate(960 540) rotate(90) scale(540 960)">
<stop stop-color="#3D6698" stop-opacity="0.79"/>
<stop offset="1" stop-color="#245B9C"/>
</radialGradient>
<clipPath id="clip0">
<rect width="1920" height="1080" fill="white"/>
</clipPath>
</defs>
</svg>
