<svg width="18" height="18" viewBox="0 0 18 18" fill="none" xmlns="http://www.w3.org/2000/svg">
<path d="M10.9825 9.00044L17.7124 2.27019C17.8976 2.08493 17.9997 1.83775 18 1.57419C18 1.31049 17.8979 1.06302 17.7124 0.878047L17.1227 0.288437C16.9373 0.10273 16.6901 0.00102234 16.4262 0.00102234C16.1628 0.00102234 15.9157 0.10273 15.7302 0.288437L9.00029 7.01824L2.27005 0.288437C2.08493 0.10273 1.83761 0.00102234 1.5739 0.00102234C1.31049 0.00102234 1.06317 0.10273 0.878049 0.288437L0.288 0.878047C-0.096 1.26205 -0.096 1.88663 0.288 2.27019L7.0181 9.00044L0.288 15.7304C0.102732 15.916 0.000731707 16.1631 0.000731707 16.4267C0.000731707 16.6902 0.102732 16.9374 0.288 17.1228L0.877902 17.7124C1.06302 17.898 1.31049 17.9999 1.57376 17.9999C1.83746 17.9999 2.08478 17.898 2.2699 17.7124L9.00015 10.9825L15.7301 17.7124C15.9155 17.898 16.1627 17.9999 16.4261 17.9999H16.4264C16.69 17.9999 16.9371 17.898 17.1225 17.7124L17.7123 17.1228C17.8974 16.9376 17.9996 16.6902 17.9996 16.4267C17.9996 16.1631 17.8974 15.916 17.7123 15.7305L10.9825 9.00044Z" fill="#383838"/>
</svg>
