<svg width="33" height="33" viewBox="0 0 33 33" fill="none" xmlns="http://www.w3.org/2000/svg">
<g clip-path="url(#clip0)">
<path d="M11.5893 25.872L6.66611 28.5574C6.3772 28.715 6.11756 28.9086 5.87598 29.1197C8.74635 31.5399 12.4517 33 16.5001 33C20.5186 33 24.2003 31.5617 27.0626 29.1745C26.7986 28.9516 26.5122 28.7511 26.1946 28.5929L20.9227 25.9573C20.2416 25.6167 19.8113 24.9206 19.8113 24.1591V22.0907C19.9595 21.922 20.1289 21.7053 20.3101 21.4494C21.0286 20.4345 21.5721 19.3181 21.9488 18.1469C22.625 17.9383 23.1231 17.3138 23.1231 16.5716V14.3637C23.1231 13.8781 22.9071 13.4441 22.5715 13.1402V9.94856C22.5715 9.94856 23.2271 4.98175 16.5007 4.98175C9.77433 4.98175 10.43 9.94856 10.43 9.94856V13.1402C10.0937 13.4441 9.87832 13.8781 9.87832 14.3637V16.5716C9.87832 17.1531 10.184 17.665 10.6417 17.9607C11.1933 20.3622 12.6379 22.0907 12.6379 22.0907V24.1081C12.6372 24.8428 12.235 25.5196 11.5893 25.872Z" fill="#E7ECED"/>
<path d="M16.782 0.00251808C7.67091 -0.153142 0.158119 7.10686 0.00245867 16.218C-0.0859564 21.384 2.21657 26.0271 5.88268 29.1147C6.1224 28.9055 6.37955 28.7138 6.66534 28.5581L11.5886 25.8726C12.2342 25.5202 12.6365 24.8434 12.6365 24.1075V22.0901C12.6365 22.0901 11.1913 20.3616 10.6403 17.9601C10.1833 17.6644 9.87693 17.1532 9.87693 16.571V14.3631C9.87693 13.8775 10.093 13.4435 10.4286 13.1396V9.94797C10.4286 9.94797 9.77295 4.98116 16.4993 4.98116C23.2257 4.98116 22.5701 9.94797 22.5701 9.94797V13.1396C22.9063 13.4435 23.1218 13.8775 23.1218 14.3631V16.571C23.1218 17.3132 22.6236 17.9377 21.9475 18.1463C21.5708 19.3175 21.0272 20.4339 20.3087 21.4488C20.1275 21.7047 19.9581 21.9214 19.8099 22.0901V24.1585C19.8099 24.92 20.2402 25.6167 20.9213 25.9567L26.1932 28.5923C26.5096 28.7505 26.7953 28.9504 27.0587 29.1726C30.614 26.2076 32.9109 21.7744 32.9962 16.7821C33.1531 7.67097 25.8938 0.158178 16.782 0.00251808Z" fill="#556080"/>
</g>
<defs>
<clipPath id="clip0">
<rect width="33" height="33" fill="white"/>
</clipPath>
</defs>
</svg>
