<svg width="18" height="18" viewBox="0 0 18 18" fill="none" xmlns="http://www.w3.org/2000/svg">
<path d="M15.7474 4.55991C15.7443 4.45454 15.7023 4.35175 15.6247 4.27416L11.474 0.123434C11.4738 0.123258 11.4736 0.123188 11.4735 0.123012C11.3972 0.0470039 11.2921 0 11.176 0H3.13825C2.64898 0 2.25098 0.397969 2.25098 0.887238V17.1127C2.25098 17.602 2.64895 18 3.13821 18H14.8609C15.3501 18 15.7481 17.602 15.7481 17.1127V4.57214C15.7482 4.56799 15.7477 4.56398 15.7474 4.55991ZM11.5974 1.43898L14.3092 4.15076H11.7753C11.6772 4.15076 11.5974 4.07099 11.5974 3.9729V1.43898V1.43898ZM14.9053 17.1128C14.9052 17.1372 14.8853 17.1571 14.8609 17.1571H3.13825C3.11382 17.1571 3.09392 17.1372 3.09392 17.1128V0.887238C3.09392 0.862805 3.11382 0.842906 3.13825 0.842906H10.7545V3.9729C10.7545 4.53572 11.2124 4.99366 11.7753 4.99366H14.9053V17.1128H14.9053Z" fill="#383838"/>
</svg>
