<svg width="18" height="19" viewBox="0 0 18 19" fill="none" xmlns="http://www.w3.org/2000/svg">
<path d="M15.7822 4.65754H10.0851C9.85386 4.65754 9.62798 4.56258 9.47199 4.40118L7.69439 2.52862C7.2671 2.1027 6.68249 1.88023 6.09039 1.88364H2.21779C0.994955 1.88361 0 2.87856 0 4.10137V14.8986C0 16.1215 0.994955 17.1164 2.21779 17.1164H15.7903H15.7924C17.0145 17.111 18.0054 16.1113 18 14.8919V6.8753C18 5.65246 17.005 4.65754 15.7822 4.65754ZM16.6435 14.8946C16.6456 15.3693 16.261 15.758 15.789 15.76H2.21779C1.74304 15.76 1.35647 15.3734 1.35647 14.8987V4.10137C1.35647 3.62662 1.74304 3.24004 2.21779 3.23934H6.10804C6.11549 3.23934 6.12294 3.23934 6.13043 3.23934C6.35694 3.23934 6.5767 3.32955 6.72453 3.47604L8.49265 5.33978C8.9077 5.7684 9.48827 6.01393 10.0851 6.01393H15.7822C16.2569 6.01393 16.6435 6.40051 16.6435 6.87526V14.8946H16.6435Z" fill="#383838"/>
</svg>
