<svg width="27" height="27" viewBox="0 0 27 27" fill="none" xmlns="http://www.w3.org/2000/svg">
<g clip-path="url(#clip0)">
<path d="M26.1555 12.6567H15.4682C15.0025 12.6567 14.6245 12.2787 14.6245 11.813C14.6245 11.3473 15.0025 10.9693 15.4682 10.9693H26.1555C26.6212 10.9693 26.9992 11.3473 26.9992 11.813C26.9992 12.2787 26.6212 12.6567 26.1555 12.6567Z" fill="#E9E9E9"/>
<path d="M21.9368 16.8753C21.7207 16.8753 21.5048 16.7931 21.3404 16.6279C21.0109 16.2981 21.0109 15.7638 21.3404 15.4342L24.9629 11.8119L21.3404 8.18942C21.0109 7.85984 21.0109 7.32551 21.3404 6.99594C21.6702 6.66615 22.2046 6.66615 22.5341 6.99594L26.7528 11.2145C27.0823 11.5441 27.0823 12.0785 26.7528 12.408L22.5341 16.6267C22.3687 16.7931 22.1529 16.8753 21.9368 16.8753Z" fill="#E9E9E9"/>
<path d="M8.99979 27.0014C8.75899 27.0014 8.53055 26.9676 8.30231 26.8968L1.53213 24.6412C0.610958 24.3195 0 23.4611 0 22.5016V2.25226C0 1.01139 1.00913 0.0022583 2.25 0.0022583C2.49059 0.0022583 2.71903 0.0360402 2.94747 0.1069L9.71745 2.36246C10.6388 2.68421 11.2496 3.54256 11.2496 4.50205V24.7514C11.2496 25.9923 10.2407 27.0014 8.99979 27.0014ZM2.25 1.68971C1.94061 1.68971 1.68745 1.94286 1.68745 2.25226V22.5016C1.68745 22.7412 1.84832 22.9639 2.07779 23.0438L8.81625 25.2893C8.86466 25.3049 8.92769 25.314 8.99979 25.314C9.30918 25.314 9.56213 25.0608 9.56213 24.7514V4.50205C9.56213 4.26249 9.40126 4.03981 9.17179 3.95989L2.43333 1.71442C2.38492 1.69877 2.32189 1.68971 2.25 1.68971Z" fill="#E9E9E9"/>
<path d="M17.1556 9.00061C16.6899 9.00061 16.3119 8.62263 16.3119 8.15689V3.09455C16.3119 2.31942 15.681 1.68827 14.9058 1.68827H2.24997C1.78424 1.68827 1.40625 1.31028 1.40625 0.844548C1.40625 0.378811 1.78424 0.000823975 2.24997 0.000823975H14.9058C16.6124 0.000823975 17.9993 1.38794 17.9993 3.09455V8.15689C17.9993 8.62263 17.6214 9.00061 17.1556 9.00061Z" fill="#E9E9E9"/>
<path d="M14.9057 23.6251H10.4057C9.94 23.6251 9.56201 23.2471 9.56201 22.7814C9.56201 22.3156 9.94 21.9376 10.4057 21.9376H14.9057C15.6809 21.9376 16.3118 21.3065 16.3118 20.5314V15.469C16.3118 15.0033 16.6898 14.6253 17.1555 14.6253C17.6213 14.6253 17.9992 15.0033 17.9992 15.469V20.5314C17.9992 22.238 16.6123 23.6251 14.9057 23.6251Z" fill="#E9E9E9"/>
</g>
<defs>
<clipPath id="clip0">
<rect width="27" height="27" fill="white"/>
</clipPath>
</defs>
</svg>
