<svg width="164" height="187" viewBox="0 0 164 187" fill="none" xmlns="http://www.w3.org/2000/svg">
<path d="M2 133.5V2H60L96.5 38.5V133.5H2Z" fill="#D8D8D8"/>
<path d="M96.5 38.5V133.5H2V2H60M96.5 38.5L60 2M96.5 38.5H60V2" stroke="#383838" stroke-width="4"/>
<path d="M75.4102 60.0312C75.4102 62.1172 75.1523 63.9805 74.6367 65.6211C74.1211 67.2617 73.418 68.7148 72.5273 69.9805C71.6602 71.2227 70.6523 72.2891 69.5039 73.1797C68.3555 74.0703 67.1484 74.8086 65.8828 75.3945C64.6406 75.957 63.375 76.3672 62.0859 76.625C60.8203 76.8828 59.625 77.0117 58.5 77.0117L77.5898 93.5H63.457L44.4023 77.0117H37.8281V67.8711H58.5C59.6484 67.7773 60.6914 67.543 61.6289 67.168C62.5898 66.7695 63.4102 66.2422 64.0898 65.5859C64.793 64.9297 65.332 64.1445 65.707 63.2305C66.082 62.293 66.2695 61.2266 66.2695 60.0312V54.2656C66.2695 53.75 66.1992 53.3633 66.0586 53.1055C65.9414 52.8242 65.7773 52.625 65.5664 52.5078C65.3789 52.3672 65.168 52.2852 64.9336 52.2617C64.7227 52.2383 64.5234 52.2266 64.3359 52.2266H34.1719V93.5H25.0312V47.6914C25.0312 47.0586 25.1484 46.4609 25.3828 45.8984C25.6172 45.3359 25.9336 44.8438 26.332 44.4219C26.7539 44 27.2461 43.6719 27.8086 43.4375C28.3711 43.2031 28.9805 43.0859 29.6367 43.0859H64.3359C66.375 43.0859 68.0977 43.4609 69.5039 44.2109C70.9102 44.9375 72.0469 45.8633 72.9141 46.9883C73.8047 48.0898 74.4375 49.2852 74.8125 50.5742C75.2109 51.8633 75.4102 53.0703 75.4102 54.1953V60.0312Z" fill="#146D38"/>
<path d="M67 184.5V53H125L161.5 89.5V184.5H67Z" fill="#D8D8D8"/>
<path d="M161.5 89.5V184.5H67V53H125M161.5 89.5L125 53M161.5 89.5H125V53" stroke="#383838" stroke-width="4"/>
<path d="M140.41 111.031C140.41 113.117 140.152 114.98 139.637 116.621C139.121 118.262 138.418 119.715 137.527 120.98C136.66 122.223 135.652 123.289 134.504 124.18C133.355 125.07 132.148 125.809 130.883 126.395C129.641 126.957 128.375 127.367 127.086 127.625C125.82 127.883 124.625 128.012 123.5 128.012L142.59 144.5H128.457L109.402 128.012H102.828V118.871H123.5C124.648 118.777 125.691 118.543 126.629 118.168C127.59 117.77 128.41 117.242 129.09 116.586C129.793 115.93 130.332 115.145 130.707 114.23C131.082 113.293 131.27 112.227 131.27 111.031V105.266C131.27 104.75 131.199 104.363 131.059 104.105C130.941 103.824 130.777 103.625 130.566 103.508C130.379 103.367 130.168 103.285 129.934 103.262C129.723 103.238 129.523 103.227 129.336 103.227H99.1719V144.5H90.0312V98.6914C90.0312 98.0586 90.1484 97.4609 90.3828 96.8984C90.6172 96.3359 90.9336 95.8438 91.332 95.4219C91.7539 95 92.2461 94.6719 92.8086 94.4375C93.3711 94.2031 93.9805 94.0859 94.6367 94.0859H129.336C131.375 94.0859 133.098 94.4609 134.504 95.2109C135.91 95.9375 137.047 96.8633 137.914 97.9883C138.805 99.0898 139.438 100.285 139.812 101.574C140.211 102.863 140.41 104.07 140.41 105.195V111.031Z" fill="#146D38"/>
<path d="M145.5 16.5V43H139V23H109V29.5L97 19.75L109 10V16.5H145.5Z" fill="#146D38"/>
<path d="M11 168.5L11 142L17.5 142L17.5 162L47.5 162L47.5 155.5L59.5 165.25L47.5 175L47.5 168.5L11 168.5Z" fill="#146D38"/>
</svg>
