<svg width="25" height="25" viewBox="0 0 25 25" fill="none" xmlns="http://www.w3.org/2000/svg">
<path d="M20.5626 10.4787C20.5626 4.1617 17.1646 2.01289 13.9867 1.53394C13.9867 1.50158 13.9932 1.46922 13.9932 1.43038C13.9932 0.634287 13.2877 0 12.4268 0C11.566 0 10.8864 0.634287 10.8864 1.43038C10.8864 1.46922 10.8864 1.50158 10.8929 1.53394C7.70853 2.01936 4.29115 4.17464 4.29115 10.4916C4.29115 17.8571 2.45948 18.6467 0 20.7179H24.8537C22.4072 18.6403 20.5626 17.8442 20.5626 10.4787Z" fill="#E9E9E9"/>
<path d="M12.4399 24.8537C14.1745 24.8537 15.5984 23.5657 15.7861 22.0706H9.09375C9.27497 23.5657 10.7054 24.8537 12.4399 24.8537Z" fill="#E9E9E9"/>
</svg>
