<svg width="27" height="27" viewBox="0 0 27 27" fill="none" xmlns="http://www.w3.org/2000/svg">
<path d="M26.3857 25.0493L19.0212 17.6617C20.4477 15.8941 21.3066 13.648 21.3066 11.2017C21.3066 5.53194 16.7077 0.918579 11.0556 0.918579C5.40356 0.918579 0.804688 5.53189 0.804688 11.2017C0.804688 16.8715 5.40361 21.4848 11.0557 21.4848C13.4943 21.4848 15.7333 20.6232 17.4954 19.1923L24.8599 26.5799C25.0703 26.791 25.3466 26.897 25.6228 26.897C25.8991 26.897 26.1753 26.791 26.3857 26.5799C26.8076 26.1567 26.8076 25.4725 26.3857 25.0493ZM11.0557 19.32C6.59271 19.32 2.9628 15.6787 2.9628 11.2017C2.9628 6.72472 6.59271 3.08342 11.0557 3.08342C15.5186 3.08342 19.1485 6.72472 19.1485 11.2017C19.1485 15.6787 15.5186 19.32 11.0557 19.32Z" fill="#383838" fill-opacity="0.56"/>
</svg>
