<svg width="167" height="53" viewBox="0 0 167 53" fill="none" xmlns="http://www.w3.org/2000/svg">
<path d="M34 0C34 9.38884 26.3888 17 17 17C7.61116 17 0 9.38884 0 0C0 -9.38884 7.61116 -17 17 -17C26.3888 -17 34 -9.38884 34 0ZM2.49639 0C2.49639 8.01012 8.98987 14.5036 17 14.5036C25.0101 14.5036 31.5036 8.01012 31.5036 0C31.5036 -8.01013 25.0101 -14.5036 17 -14.5036C8.98987 -14.5036 2.49639 -8.01013 2.49639 0Z" fill="#C4C4C4" fill-opacity="0.05"/>
<path d="M77 39.5C77 46.9558 70.9558 53 63.5 53C56.0442 53 50 46.9558 50 39.5C50 32.0442 56.0442 26 63.5 26C70.9558 26 77 32.0442 77 39.5ZM51.9824 39.5C51.9824 45.861 57.139 51.0176 63.5 51.0176C69.861 51.0176 75.0176 45.861 75.0176 39.5C75.0176 33.139 69.861 27.9824 63.5 27.9824C57.139 27.9824 51.9824 33.139 51.9824 39.5Z" fill="#C4C4C4" fill-opacity="0.05"/>
<path d="M116 10C116 15.5228 111.523 20 106 20C100.477 20 96 15.5228 96 10C96 4.47715 100.477 0 106 0C111.523 0 116 4.47715 116 10ZM97.4685 10C97.4685 14.7118 101.288 18.5315 106 18.5315C110.712 18.5315 114.532 14.7118 114.532 10C114.532 5.28816 110.712 1.46846 106 1.46846C101.288 1.46846 97.4685 5.28816 97.4685 10Z" fill="#C4C4C4" fill-opacity="0.05"/>
<path d="M167 37C167 43.6274 161.627 49 155 49C148.373 49 143 43.6274 143 37C143 30.3726 148.373 25 155 25C161.627 25 167 30.3726 167 37ZM144.762 37C144.762 42.6542 149.346 47.2378 155 47.2378C160.654 47.2378 165.238 42.6542 165.238 37C165.238 31.3458 160.654 26.7622 155 26.7622C149.346 26.7622 144.762 31.3458 144.762 37Z" fill="#C4C4C4" fill-opacity="0.05"/>
<path d="M24.547 33.8486L31.2692 43.8656L21.3049 50.5524L12 36.6868L18.1156 32.5827M24.547 33.8486L18.1156 32.5827M24.547 33.8486L20.6984 36.4314L18.1156 32.5827" stroke="#C4C4C4" stroke-opacity="0.05"/>
<path d="M59.9709 9.74862L60.6619 19.5053L50.9565 20.1927L50 6.68735L55.9567 6.26547M59.9709 9.74862L55.9567 6.26547M59.9709 9.74862L56.2222 10.0141L55.9567 6.26547" stroke="#C4C4C4" stroke-opacity="0.05"/>
<path d="M115.401 31.7084L112.963 42.7293L102 40.3043L105.375 25.049L112.104 26.5374M115.401 31.7084L112.104 26.5374M115.401 31.7084L111.167 30.7717L112.104 26.5374" stroke="#C4C4C4" stroke-opacity="0.05"/>
<path d="M150.201 1.79786L151.16 11.6827L141.327 12.6363L140 -1.04639L146.035 -1.63167M150.201 1.79786L146.035 -1.63167M150.201 1.79786L146.403 2.16618L146.035 -1.63167" stroke="#C4C4C4" stroke-opacity="0.05"/>
</svg>
