<svg width="1792" height="1080" viewBox="0 0 1792 1080" fill="none" xmlns="http://www.w3.org/2000/svg">
<path d="M850.973 989.463L828.588 1065.45L753 1043.18L783.986 938L830.379 951.667M850.973 989.463L830.379 951.667M850.973 989.463L821.778 980.862L830.379 951.667" stroke="#C4C4C4" stroke-opacity="0.15" stroke-width="4"/>
<path d="M554.454 734.345L583.58 789.901L528.316 818.873L488 741.973L521.918 724.19M554.454 734.345L521.918 724.19M554.454 734.345L533.109 745.536L521.918 724.19" stroke="#C4C4C4" stroke-opacity="0.15" stroke-width="4"/>
<path d="M1122.66 530.335L1098.8 609.193L1020.35 585.452L1053.39 476.296L1101.53 490.867M1122.66 530.335L1101.53 490.867M1122.66 530.335L1092.36 521.165L1101.53 490.867" stroke="#C4C4C4" stroke-opacity="0.15" stroke-width="4"/>
<path d="M1383.75 122.304L1395.98 203.781L1314.94 215.951L1298 103.17L1347.74 95.7007M1383.75 122.304L1347.74 95.7007M1383.75 122.304L1352.44 127.005L1347.74 95.7007" stroke="#C4C4C4" stroke-opacity="0.15" stroke-width="4"/>
<path d="M293 90.5C293 146.005 248.005 191 192.5 191C136.995 191 92 146.005 92 90.5C92 34.9954 136.995 -10 192.5 -10C248.005 -10 293 34.9954 293 90.5ZM98.8973 90.5C98.8973 142.195 140.805 184.103 192.5 184.103C244.195 184.103 286.103 142.195 286.103 90.5C286.103 38.8046 244.195 -3.10275 192.5 -3.10275C140.805 -3.10275 98.8973 38.8046 98.8973 90.5Z" fill="#C4C4C4" fill-opacity="0.15"/>
<path d="M1863 337.5C1863 395.766 1815.77 443 1757.5 443C1699.23 443 1652 395.766 1652 337.5C1652 279.234 1699.23 232 1757.5 232C1815.77 232 1863 279.234 1863 337.5ZM1662.8 337.5C1662.8 389.799 1705.2 432.197 1757.5 432.197C1809.8 432.197 1852.2 389.799 1852.2 337.5C1852.2 285.201 1809.8 242.803 1757.5 242.803C1705.2 242.803 1662.8 285.201 1662.8 337.5Z" fill="#C4C4C4" fill-opacity="0.15"/>
<path d="M980 229C980 293.617 927.617 346 863 346C798.383 346 746 293.617 746 229C746 164.383 798.383 112 863 112C927.617 112 980 164.383 980 229ZM753.228 229C753.228 289.625 802.375 338.772 863 338.772C923.625 338.772 972.772 289.625 972.772 229C972.772 168.375 923.625 119.228 863 119.228C802.375 119.228 753.228 168.375 753.228 229Z" fill="#C4C4C4" fill-opacity="0.15"/>
<path d="M1837 1051.5C1837 1109.77 1789.77 1157 1731.5 1157C1673.23 1157 1626 1109.77 1626 1051.5C1626 993.234 1673.23 946 1731.5 946C1789.77 946 1837 993.234 1837 1051.5ZM1636.8 1051.5C1636.8 1103.8 1679.2 1146.2 1731.5 1146.2C1783.8 1146.2 1826.2 1103.8 1826.2 1051.5C1826.2 999.201 1783.8 956.803 1731.5 956.803C1679.2 956.803 1636.8 999.201 1636.8 1051.5Z" fill="#C4C4C4" fill-opacity="0.15"/>
<path d="M1235 846.5C1235 882.675 1205.67 912 1169.5 912C1133.33 912 1104 882.675 1104 846.5C1104 810.325 1133.33 781 1169.5 781C1205.67 781 1235 810.325 1235 846.5ZM1110.71 846.5C1110.71 878.97 1137.03 905.293 1169.5 905.293C1201.97 905.293 1228.29 878.97 1228.29 846.5C1228.29 814.03 1201.97 787.707 1169.5 787.707C1137.03 787.707 1110.71 814.03 1110.71 846.5Z" fill="#C4C4C4" fill-opacity="0.15"/>
<path d="M270 634C270 708.558 209.558 769 135 769C60.4416 769 0 708.558 0 634C0 559.442 60.4416 499 135 499C209.558 499 270 559.442 270 634ZM13.8244 634C13.8244 700.923 68.0765 755.176 135 755.176C201.923 755.176 256.176 700.923 256.176 634C256.176 567.077 201.923 512.824 135 512.824C68.0765 512.824 13.8244 567.077 13.8244 634Z" fill="#C4C4C4" fill-opacity="0.15"/>
<path d="M483 1059C483 1111.47 440.467 1154 388 1154C335.533 1154 293 1111.47 293 1059C293 1006.53 335.533 964 388 964C440.467 964 483 1006.53 483 1059ZM302.728 1059C302.728 1106.09 340.906 1144.27 388 1144.27C435.094 1144.27 473.272 1106.09 473.272 1059C473.272 1011.91 435.094 973.728 388 973.728C340.906 973.728 302.728 1011.91 302.728 1059Z" fill="#C4C4C4" fill-opacity="0.15"/>
</svg>
